<svg width="24" height="24" viewBox="0 0 24 24" fill="none" xmlns="http://www.w3.org/2000/svg">
<g clip-path="url(#clip0_531_2)">
<path d="M23.718 0.667969L23.638 0.707969C23.638 0.707969 19.075 2.88197 15.394 3.35897C13.54 3.59897 10.84 3.83997 8.43 3.97897C7.34647 4.04494 6.26147 4.08395 5.176 4.09597C4.259 4.10097 3.546 4.06397 3.226 3.98597C2.4116 3.79196 1.61005 3.54749 0.826 3.25397L0.574 3.15397L0.92 4.32597L0 5.13597L0.248 5.57197L0.688 5.60497L1.74 5.73597L1.902 6.24997L2.537 6.30697L2.855 7.38497L2.947 7.39097C2.947 7.39097 4.285 7.50597 4.709 7.50597C5.074 7.50597 5.639 7.46597 5.781 7.45597L5.805 7.85197L6.092 7.90597V8.22097L5.292 8.93097L5.449 8.95897C5.309 8.96897 5.222 8.97697 4.949 8.98897C4.519 9.00597 4.015 9.00897 3.746 8.97097C3.16 8.88497 3.036 8.88497 3.036 8.88497H2.98L2.858 9.01497L2.812 9.46097H2.964L3.019 10.572L5.952 10.459L5.747 14.141L5.727 14.488L3.485 14.361L3.465 13.6H4.003L4.06 13.18L4.524 13.074L4.747 12.762L2.636 12.252L0.931 12.758L1.396 13.146H1.562L1.587 13.48L2.081 13.508V14.271L1.47 14.428L1.66 14.832L1.765 14.9V15.725H2.108V19.021L1.542 19.107L1.64 20.354L1.974 20.41L1.919 22.752L3.722 22.785L3.402 20.482L5.384 20.434L5.244 21.521L4.994 22.553L7.603 22.586L7.63 20.306L8.952 20.186L8.88 21.48L8.817 22.47H10.45L10.397 20.17L10.573 20.197L10.64 18.805H10.397L10.339 18.465L10.208 17.175L10.257 15.811H10.552V14.629L10.188 14.656L10.228 13.85L10.658 13.807L10.681 13.455L10.853 13.43L11.363 13.041L9.536 12.666L7.826 13.045L8.112 13.514L8.351 13.494L8.405 13.49L8.439 13.932L8.849 13.912L8.853 14.586L7.327 14.551L7.38 13.674L7.439 12.748V11.535L7.487 10.383L10.972 10.205L15.127 9.96497L15.16 10.639L15.008 12.588L14.945 14.281L13.625 14.258L13.619 13.24L14.193 13.219L14.221 12.846L14.491 12.805L14.479 12.748L14.631 12.738L14.921 12.35L12.911 11.879L10.925 12.305L11.183 12.755L11.323 12.745V12.834H11.569V13.236L12.093 13.244L12.087 14.1H11.56L11.546 14.605L11.733 14.627L11.712 15.605L12.105 15.625L12.061 19.24L11.538 19.348L11.554 19.771H11.73V20.756H12.019L11.949 21.961L11.837 23.275L14.007 23.332L13.937 22.16L13.799 21.312L13.777 20.719L15.102 20.695L15.062 21.697L15.053 23.027L16.086 23.109L17.338 23.059L17.871 22.902L17.621 22.142L17.568 21.142L17.488 20.559L18.721 20.514L18.664 21.256L18.658 22.771L19.396 22.84L20.027 22.824L20.443 22.694L20.256 21.27L20.207 20.408L20.457 20.381L20.463 19.486L20.543 19.469L20.516 19.039H20.213L20.164 18.512L20.141 15.82L20.363 15.814V14.912L20.459 14.926V14.465L20.125 14.438L20.131 13.602L20.701 13.551L20.668 13.189L20.928 13.168L20.904 13.051L21.484 12.761L19.428 12.348L17.548 12.728L17.779 13.16L18.002 13.14L18.016 13.217H18.219L18.23 13.643L18.777 13.637L18.812 14.41L17.142 14.398L16.93 12.941L16.752 12.115L16.607 10.646L16.682 9.89997L20.529 9.60697L20.541 8.29097L20.742 8.24097L20.719 7.86097L20.48 7.72297H20.443L20.086 7.77297L19.293 7.88897C18.7523 7.96811 18.2106 8.04011 17.668 8.10497L17.478 8.12497L17.463 7.94697L16.678 7.53697L16.684 7.26197L16.955 7.25397L16.975 6.58197C17.065 6.57597 17.327 6.55797 17.746 6.51997C18.23 6.47497 18.786 6.41497 19.107 6.33997C19.704 6.19997 20.559 6.05997 20.559 6.05997L20.635 6.04697L21.043 4.93897L21.848 4.70497L21.914 4.52097L23.694 4.02897L24 3.77697L23.283 2.21297L23.33 1.97697L23.674 1.79697L23.971 0.890969L23.718 0.667969ZM14.825 6.72997L14.815 7.25597L15.222 7.27297L15.206 7.59297L14.417 8.11097L14.331 8.36897L12.471 8.45897L12.481 8.27497L12.593 8.09497L12.603 7.94097L12.604 7.71297L12.671 7.55697L12.702 7.39697V7.30497L12.782 6.98197L14.825 6.72997ZM9.645 7.19097L9.602 7.45497L9.801 7.68897L9.787 8.07597L9.963 8.34597L9.916 8.67397L9.941 8.70897L8.094 8.78297L8.114 8.63097L7.461 8.27697L7.439 7.93197L7.729 7.91797L7.758 7.31997L9.645 7.19097ZM13.659 15.691L14.917 15.773L14.867 17.711L15.05 19.251L13.71 19.205L13.659 15.691ZM3.434 15.775L5.594 15.887L5.4 17.17V18.389L5.537 18.912L3.447 19.01L3.434 15.775ZM18.81 15.785V19.041L17.52 19.135L17.468 17.412L17.31 15.82L18.81 15.785ZM7.316 15.861L8.854 15.867L8.871 18.863L7.441 18.889L7.365 17.961L7.359 16.914L7.316 15.861Z" fill="#212121ff"/>
</g>
<defs>
<clipPath id="clip0_531_2">
<rect width="24" height="24" fill="white"/>
</clipPath>
</defs>
</svg>
