<svg width="30" height="30" viewBox="0 0 30 30" fill="none" xmlns="http://www.w3.org/2000/svg">
<path d="M5.9375 21.5625C6.18614 21.5625 6.4246 21.6613 6.60041 21.8371C6.77623 22.0129 6.875 22.2514 6.875 22.5V25.3125C6.875 25.485 7.015 25.625 7.1875 25.625H22.8125C22.8954 25.625 22.9749 25.5921 23.0335 25.5335C23.0921 25.4749 23.125 25.3954 23.125 25.3125V22.5C23.125 22.2514 23.2238 22.0129 23.3996 21.8371C23.5754 21.6613 23.8139 21.5625 24.0625 21.5625C24.3111 21.5625 24.5496 21.6613 24.7254 21.8371C24.9012 22.0129 25 22.2514 25 22.5V25.3125C25 25.8927 24.7695 26.4491 24.3593 26.8593C23.9491 27.2695 23.3927 27.5 22.8125 27.5H7.1875C6.60734 27.5 6.05094 27.2695 5.6407 26.8593C5.23047 26.4491 5 25.8927 5 25.3125V22.5C5 22.2514 5.09877 22.0129 5.27459 21.8371C5.4504 21.6613 5.68886 21.5625 5.9375 21.5625Z" fill="#484848"/>
<path d="M6.52518 12.4625C6.61214 12.3754 6.71541 12.3063 6.82909 12.2592C6.94276 12.2121 7.06462 12.1878 7.18768 12.1878C7.31074 12.1878 7.4326 12.2121 7.54628 12.2592C7.65995 12.3063 7.76323 12.3754 7.85018 12.4625L14.0627 18.6737V3.4375C14.0627 3.18886 14.1615 2.9504 14.3373 2.77459C14.5131 2.59877 14.7515 2.5 15.0002 2.5C15.2488 2.5 15.4873 2.59877 15.6631 2.77459C15.8389 2.9504 15.9377 3.18886 15.9377 3.4375V18.6737L22.1502 12.4625C22.3259 12.2868 22.5642 12.1881 22.8127 12.1881C23.0612 12.1881 23.2995 12.2868 23.4752 12.4625C23.6509 12.6382 23.7496 12.8765 23.7496 13.125C23.7496 13.3735 23.6509 13.6118 23.4752 13.7875L15.6627 21.6C15.5757 21.6871 15.4725 21.7562 15.3588 21.8033C15.2451 21.8504 15.1232 21.8747 15.0002 21.8747C14.8771 21.8747 14.7553 21.8504 14.6416 21.8033C14.5279 21.7562 14.4246 21.6871 14.3377 21.6L6.52518 13.7875C6.4381 13.7005 6.36902 13.5973 6.32188 13.4836C6.27475 13.3699 6.25049 13.2481 6.25049 13.125C6.25049 13.0019 6.27475 12.8801 6.32188 12.7664C6.36902 12.6527 6.4381 12.5495 6.52518 12.4625Z" fill="#484848"/>
</svg>
