<svg width="20" height="20" viewBox="0 0 20 20" fill="none" xmlns="http://www.w3.org/2000/svg">
<g clip-path="url(#clip0_381_514)">
<path d="M0.000488281 5.9375C0.000488281 2.65625 2.65674 0 5.93799 0H14.063C17.3442 0 20.0005 2.65625 20.0005 5.9375V14.0625C20.0005 17.3438 17.3442 20 14.063 20H5.93799C2.65674 20 0.000488281 17.3438 0.000488281 14.0625V5.9375ZM7.20361 4.53125V5.45312L3.92236 7.35938V10.6875L3.04736 11.1875V14.3906L5.82861 16L7.03174 15.2969L10.0161 17.0156L13.0161 15.2812L14.2505 16L17.0161 14.4062V11.1875L16.1099 10.6719V7.35938L12.7505 5.40625V4.53125L9.98486 2.92188L7.20361 4.53125ZM15.3911 7.78125V10.2656L14.2349 9.59375L11.4536 11.2031V14.4062L12.2817 14.875L10.0005 16.1875L7.75049 14.8906L8.59424 14.4062V11.2031L5.81299 9.59375L4.62549 10.2812V7.78125L7.18799 6.29688H7.20361V7.75L9.96924 9.34375L12.7505 7.75V6.25L15.3911 7.78125ZM12.188 14V12.0469L13.8755 13.0156V14.9688L12.188 14ZM16.2974 14L14.5942 14.9844V13.0312L16.2974 12.0469V14ZM3.76611 14V12.0469L5.46924 13.0156V14.9844L3.76611 14ZM7.85986 14L6.17236 14.9688V13.0156L7.85986 12.0312V14ZM12.5317 11.4375L14.2349 10.4531L15.9224 11.4375L14.2349 12.4062L12.5317 11.4375ZM7.50049 11.4375L5.79736 12.4219L4.10986 11.4375L5.79736 10.4531L7.50049 11.4375ZM7.92236 7.35938V5.40625L9.60986 6.375V8.34375L7.92236 7.35938ZM12.0161 7.35938L10.3286 8.32812V6.375L12.0161 5.39062V7.35938ZM8.28174 4.78125L9.96924 3.8125L11.6567 4.78125L9.96924 5.76562L8.28174 4.78125Z" fill="#212121ff"/>
</g>
<defs>
<clipPath id="clip0_381_514">
<rect width="20" height="20" fill="white" transform="translate(0.000488281)"/>
</clipPath>
</defs>
</svg>
