<svg width="18" height="18" viewBox="0 0 18 18" fill="none" xmlns="http://www.w3.org/2000/svg">
<path d="M9 2.8125C7.77623 2.8125 6.57994 3.17539 5.56241 3.85528C4.54488 4.53517 3.75182 5.50153 3.2835 6.63215C2.81518 7.76276 2.69265 9.00686 2.9314 10.2071C3.17014 11.4074 3.75944 12.5099 4.62478 13.3752C5.49012 14.2406 6.59263 14.8299 7.79288 15.0686C8.99314 15.3074 10.2372 15.1848 11.3679 14.7165C12.4985 14.2482 13.4648 13.4551 14.1447 12.4376C14.8246 11.4201 15.1875 10.2238 15.1875 9C15.1857 7.35953 14.5332 5.78677 13.3732 4.62679C12.2132 3.4668 10.6405 2.81432 9 2.8125ZM9 11.75C9.42731 11.7515 9.84901 11.6527 10.2312 11.4617C10.6135 11.2707 10.9456 10.9927 11.2009 10.65C11.2545 10.5762 11.3223 10.5139 11.4002 10.4666C11.4782 10.4192 11.5648 10.3879 11.655 10.3744C11.7451 10.3608 11.8371 10.3654 11.9255 10.3877C12.0139 10.4101 12.097 10.4498 12.1699 10.5046C12.2428 10.5594 12.3041 10.6281 12.3502 10.7068C12.3963 10.7855 12.4263 10.8726 12.4384 10.963C12.4505 11.0534 12.4445 11.1453 12.4207 11.2333C12.397 11.3214 12.3559 11.4038 12.3 11.4759C11.7804 12.1682 11.0561 12.6794 10.2298 12.9373C9.40343 13.1952 8.51692 13.1865 7.69577 12.9126C6.87461 12.6387 6.16043 12.1135 5.65436 11.4112C5.14829 10.7089 4.87597 9.8652 4.87597 8.99957C4.87597 8.13394 5.14829 7.29025 5.65436 6.58797C6.16043 5.88568 6.87461 5.3604 7.69577 5.08651C8.51692 4.81261 9.40343 4.80398 10.2298 5.06184C11.0561 5.3197 11.7804 5.83098 12.3 6.52328C12.3559 6.59532 12.397 6.67776 12.4207 6.76581C12.4445 6.85386 12.4505 6.94575 12.4384 7.03614C12.4263 7.12653 12.3963 7.21361 12.3502 7.29231C12.3041 7.371 12.2428 7.43974 12.1699 7.49453C12.097 7.54931 12.0139 7.58904 11.9255 7.6114C11.8371 7.63376 11.7451 7.63831 11.655 7.62478C11.5648 7.61125 11.4782 7.57991 11.4002 7.53259C11.3223 7.48527 11.2545 7.42291 11.2009 7.34914C10.9195 6.97433 10.5471 6.67764 10.1189 6.48723C9.69064 6.29681 9.22086 6.21899 8.75411 6.26115C8.28737 6.30331 7.83914 6.46405 7.45197 6.72812C7.06481 6.99219 6.75155 7.35082 6.54193 7.76997C6.33231 8.18913 6.23329 8.65489 6.25426 9.12307C6.27524 9.59125 6.41551 10.0463 6.66177 10.445C6.90802 10.8438 7.2521 11.1729 7.66132 11.4013C8.07055 11.6297 8.53136 11.7497 9 11.75ZM9 0.0625C7.23233 0.0625 5.50436 0.586675 4.0346 1.56874C2.56483 2.55081 1.41929 3.94665 0.742831 5.57977C0.0663725 7.21288 -0.11062 9.00992 0.234236 10.7436C0.579091 12.4773 1.43031 14.0698 2.68024 15.3198C3.93017 16.5697 5.52268 17.4209 7.25638 17.7658C8.99009 18.1106 10.7871 17.9336 12.4202 17.2572C14.0534 16.5807 15.4492 15.4352 16.4313 13.9654C17.4133 12.4956 17.9375 10.7677 17.9375 9C17.935 6.6304 16.9926 4.35856 15.317 2.683C13.6414 1.00743 11.3696 0.0650023 9 0.0625ZM9 16.5625C7.50428 16.5625 6.04215 16.119 4.7985 15.288C3.55486 14.457 2.58555 13.2759 2.01316 11.894C1.44078 10.5122 1.29101 8.99161 1.58282 7.52463C1.87462 6.05765 2.59487 4.71014 3.65251 3.65251C4.71014 2.59487 6.05765 1.87461 7.52463 1.58281C8.99162 1.29101 10.5122 1.44077 11.894 2.01316C13.2759 2.58555 14.457 3.55485 15.288 4.7985C16.119 6.04215 16.5625 7.50428 16.5625 9C16.5602 11.005 15.7627 12.9272 14.345 14.345C12.9272 15.7627 11.005 16.5602 9 16.5625Z" fill="#212121ff"/>
</svg>
