<svg width="128" height="128" viewBox="0 0 128 128" fill="none" xmlns="http://www.w3.org/2000/svg">
<path d="M88.6899 88.11C79.6899 106.51 63.9299 118.89 43.0799 122.96C39.8831 123.743 36.6013 124.126 33.3099 124.1C21.3099 124.1 10.3099 119.1 4.96994 110.91C-2.20006 100 -4.64006 76.87 18.9999 59.76C19.4799 62.37 20.4599 65.95 21.1099 68.07C16.4693 71.5177 12.6707 75.9727 9.99994 81.1C5.59994 89.74 6.08994 98.37 11.2999 106.35C14.8999 111.73 20.5999 115 27.9299 116C37.0853 117.159 46.3733 115.41 54.4799 111C67.1899 104.32 75.6599 96.34 81.1999 85.43C79.6334 83.8111 78.7062 81.6797 78.5899 79.43C78.5062 77.0159 79.3836 74.6671 81.0297 72.8992C82.6758 71.1313 84.956 70.0886 87.3699 70H87.7099C90.0579 69.9882 92.3205 70.8795 94.0297 72.4895C95.7388 74.0994 96.7636 76.3048 96.8921 78.6493C97.0205 80.9937 96.2428 83.2979 94.7198 85.0849C93.1968 86.872 91.0451 88.0051 88.7099 88.25L88.6899 88.11ZM117.36 67.91C129.57 81.75 129.9 98.04 125.18 107.49C120.78 116.12 109.18 124.76 93.5799 124.76C86.2976 124.611 79.1336 122.889 72.5799 119.71C74.8699 118.08 78.1199 115.47 79.9099 113.84C84.9638 116.029 90.4026 117.192 95.9099 117.26C106.01 117.26 113.66 112.54 118.22 103.91C121.15 98.21 121.32 91.53 118.55 84.69C115.151 76.0838 109.103 68.7818 101.28 63.84C91.0166 56.9214 78.9174 53.2332 66.5399 53.25H63.6099C62.9267 54.8283 61.8152 56.1837 60.4013 57.1628C58.9874 58.1419 57.3277 58.7056 55.6099 58.79H55.2999C52.9241 58.7608 50.6532 57.8065 48.9697 56.1299C47.2861 54.4533 46.3224 52.1864 46.2834 49.8107C46.2443 47.435 47.133 45.1377 48.7605 43.4067C50.3881 41.6756 52.6263 40.6473 54.9999 40.54H55.3299C56.984 40.5412 58.6057 40.9983 60.017 41.8609C61.4283 42.7236 62.5746 43.9585 63.3299 45.43H65.9399C86.7399 45.43 105 53.41 117.36 67.91ZM34.6099 90.91C34.4387 89.2494 34.841 87.5802 35.7499 86.18C26.6299 70.38 21.7499 50.35 29.2399 29.5C34.6099 13.83 48.1299 3.23999 62.7899 3.23999C78.4299 3.23999 94.7199 16.93 96.6699 43.31C94.2299 42.5 90.6699 41.31 88.5299 40.87C87.9999 32.24 80.7099 10.74 63.4399 11.06C57.2499 11.23 48.1299 14.16 43.4399 20.18C37.6386 27.3662 34.2637 36.206 33.7999 45.43C32.7006 58.0777 35.6681 70.7461 42.2699 81.59C42.6344 81.4568 43.0229 81.4023 43.4099 81.43H43.7299C46.1487 81.3862 48.4858 82.3051 50.2271 83.9845C51.9684 85.6639 52.9712 87.9662 53.0149 90.385C53.0587 92.8038 52.1398 95.1409 50.4604 96.8821C48.781 98.6234 46.4787 99.6262 44.0599 99.67H43.7299C41.3702 99.6616 39.1048 98.7429 37.4058 97.1054C35.7068 95.4678 34.7052 93.2378 34.6099 90.88V90.91Z" fill="#212121ff"/>
</svg>
