<svg width="18" height="22" viewBox="0 0 18 22" fill="none" xmlns="http://www.w3.org/2000/svg">
<g clip-path="url(#clip0_381_497)">
<path d="M12.7989 0.54982C13.0086 0.772344 13.1155 1.07259 13.3293 1.67308L18.0005 14.7913C16.2459 14.0129 14.3627 13.4679 12.4158 13.1749L9.37441 4.38846C9.35015 4.31838 9.3 4.2569 9.23147 4.21321C9.16293 4.16952 9.0797 4.14597 8.99421 4.14609C8.90872 4.1462 8.82557 4.16998 8.75719 4.21385C8.68882 4.25772 8.6389 4.31934 8.61489 4.38948L5.6103 13.1705C3.65464 13.4621 1.76277 14.008 0.000488281 14.7893L4.69455 1.67002C4.90907 1.07061 5.01637 0.770841 5.22604 0.548738C5.41114 0.352672 5.6519 0.200406 5.92537 0.106454C6.2351 0 6.60178 0 7.33507 0H10.6878C11.4221 0 11.7892 0 12.0992 0.106634C12.3729 0.200814 12.6138 0.353399 12.7988 0.54982H12.7989Z" fill="#212121ff"/>
<path d="M13.3578 15.4156C12.5877 15.9785 11.0507 16.3624 9.28021 16.3624C7.10728 16.3624 5.28597 15.7841 4.80272 15.0063C4.62989 15.4521 4.59114 15.9623 4.59114 16.2881C4.59114 16.2881 4.47731 17.8884 5.77929 19.0015C5.77929 18.4235 6.32737 17.9549 7.00343 17.9549C8.16218 17.9549 8.16077 18.8192 8.15979 19.5204L8.15972 19.5829C8.15972 20.6472 8.9205 21.5595 10.0026 21.944C9.83605 21.651 9.74977 21.3293 9.75032 21.0035C9.75032 19.9885 10.4473 19.6106 11.2575 19.1714C11.902 18.8219 12.6182 18.4336 13.1118 17.6547C13.3776 17.2351 13.5164 16.7653 13.5155 16.2881C13.5155 15.984 13.4602 15.6908 13.3578 15.4156Z" fill="#794151ff"/>
</g>
<defs>
<clipPath id="clip0_381_497">
<rect width="18" height="22" fill="white" transform="translate(0.000488281)"/>
</clipPath>
</defs>
</svg>
