<svg width="24" height="24" viewBox="0 0 24 24" fill="none" xmlns="http://www.w3.org/2000/svg">
<path d="M12.0005 10.11C13.0305 10.11 13.8705 10.95 13.8705 12C13.8705 13 13.0305 13.85 12.0005 13.85C10.9705 13.85 10.1305 13 10.1305 12C10.1305 10.95 10.9705 10.11 12.0005 10.11ZM7.37049 20C8.00049 20.38 9.38049 19.8 10.9705 18.3C10.4505 17.71 9.94049 17.07 9.46049 16.4C8.65464 16.3229 7.8535 16.2027 7.06049 16.04C6.55049 18.18 6.74049 19.65 7.37049 20ZM8.08049 14.26L7.79049 13.75C7.68049 14.04 7.57049 14.33 7.50049 14.61C7.77049 14.67 8.07049 14.72 8.38049 14.77L8.08049 14.26ZM14.6205 13.5L15.4305 12L14.6205 10.5C14.3205 9.97003 14.0005 9.50003 13.7105 9.03003C13.1705 9.00003 12.6005 9.00003 12.0005 9.00003C11.4005 9.00003 10.8305 9.00003 10.2905 9.03003C10.0005 9.50003 9.68049 9.97003 9.38049 10.5L8.57049 12L9.38049 13.5C9.68049 14.03 10.0005 14.5 10.2905 14.97C10.8305 15 11.4005 15 12.0005 15C12.6005 15 13.1705 15 13.7105 14.97C14.0005 14.5 14.3205 14.03 14.6205 13.5ZM12.0005 6.78003C11.8105 7.00003 11.6105 7.23003 11.4105 7.50003H12.5905C12.3905 7.23003 12.1905 7.00003 12.0005 6.78003ZM12.0005 17.22C12.1905 17 12.3905 16.77 12.5905 16.5H11.4105C11.6105 16.77 11.8105 17 12.0005 17.22ZM16.6205 4.00003C16.0005 3.62003 14.6205 4.20003 13.0305 5.70003C13.5505 6.29003 14.0605 6.93003 14.5405 7.60003C15.3605 7.68003 16.1705 7.80003 16.9405 7.96003C17.4505 5.82003 17.2605 4.35003 16.6205 4.00003ZM15.9205 9.74003L16.2105 10.25C16.3205 9.96003 16.4305 9.67003 16.5005 9.39003C16.2305 9.33003 15.9305 9.28003 15.6205 9.23003L15.9205 9.74003ZM17.3705 2.69003C18.8405 3.53003 19.0005 5.74003 18.3805 8.32003C20.9205 9.07003 22.7505 10.31 22.7505 12C22.7505 13.69 20.9205 14.93 18.3805 15.68C19.0005 18.26 18.8405 20.47 17.3705 21.31C15.9105 22.15 13.9205 21.19 12.0005 19.36C10.0805 21.19 8.09049 22.15 6.62049 21.31C5.16049 20.47 5.00049 18.26 5.62049 15.68C3.08049 14.93 1.25049 13.69 1.25049 12C1.25049 10.31 3.08049 9.07003 5.62049 8.32003C5.00049 5.74003 5.16049 3.53003 6.62049 2.69003C8.09049 1.85003 10.0805 2.81003 12.0005 4.64003C13.9205 2.81003 15.9105 1.85003 17.3705 2.69003ZM17.0805 12C17.4205 12.75 17.7205 13.5 17.9705 14.26C20.0705 13.63 21.2505 12.73 21.2505 12C21.2505 11.27 20.0705 10.37 17.9705 9.74003C17.7205 10.5 17.4205 11.25 17.0805 12ZM6.92049 12C6.58049 11.25 6.28049 10.5 6.03049 9.74003C3.93049 10.37 2.75049 11.27 2.75049 12C2.75049 12.73 3.93049 13.63 6.03049 14.26C6.28049 13.5 6.58049 12.75 6.92049 12ZM15.9205 14.26L15.6205 14.77C15.9305 14.72 16.2305 14.67 16.5005 14.61C16.4305 14.33 16.3205 14.04 16.2105 13.75L15.9205 14.26ZM13.0305 18.3C14.6205 19.8 16.0005 20.38 16.6205 20C17.2605 19.65 17.4505 18.18 16.9405 16.04C16.1705 16.2 15.3605 16.32 14.5405 16.4C14.0605 17.07 13.5505 17.71 13.0305 18.3ZM8.08049 9.74003L8.38049 9.23003C8.07049 9.28003 7.77049 9.33003 7.50049 9.39003C7.57049 9.67003 7.68049 9.96003 7.79049 10.25L8.08049 9.74003ZM10.9705 5.70003C9.38049 4.20003 8.00049 3.62003 7.37049 4.00003C6.74049 4.35003 6.55049 5.82003 7.06049 7.96003C7.8535 7.79732 8.65464 7.67715 9.46049 7.60003C9.94049 6.93003 10.4505 6.29003 10.9705 5.70003Z" fill="#212121ff"/>
</svg>
