<svg width="30" height="30" viewBox="0 0 30 30" fill="none" xmlns="http://www.w3.org/2000/svg">
<path d="M11.7124 21.8875C7.84991 22.9625 14.0499 25.1875 18.9624 23.1375C18.4857 22.9521 18.0257 22.7263 17.5874 22.4625C15.8819 22.8508 14.1201 22.927 12.3874 22.6875C10.7499 22.5 11.7124 21.8875 11.7124 21.8875ZM18.3749 19.7875C16.175 20.2659 13.9108 20.3758 11.6749 20.1125C10.0374 19.9375 11.1124 19.15 11.1124 19.15C6.86241 20.55 13.4749 22.15 19.4124 20.4C19.0264 20.2732 18.6724 20.0642 18.3749 19.7875ZM20.6499 7.625C20.6499 7.625 12.0624 9.7625 16.1624 14.4875C16.3224 14.6793 16.4416 14.9016 16.5127 15.141C16.5839 15.3804 16.6055 15.6317 16.5762 15.8797C16.547 16.1277 16.4675 16.3672 16.3426 16.5834C16.2177 16.7997 16.0501 16.9882 15.8499 17.1375C15.8499 17.1375 18.9249 15.55 17.5124 13.5625C16.0999 11.575 15.1874 10.7875 20.6499 7.625Z" fill="#212121ff"/>
<path d="M22.6625 23.925C22.6625 23.925 23.3625 24.5 21.875 24.95C19.0375 25.8125 10.0875 26.075 7.59996 24.95C6.69996 24.5625 8.37496 24.025 8.84996 23.9125C9.13152 23.8398 9.42174 23.8062 9.71246 23.8125C8.71246 23.1125 3.27496 25.1875 6.94996 25.7875C17.0125 27.5 25.25 25.0875 22.6625 23.925ZM19.2125 17.825C19.58 17.5925 19.9644 17.3878 20.3625 17.2125C20.3625 17.2125 18.475 17.55 16.6125 17.7125C14.6096 17.9058 12.5939 17.9267 10.5875 17.775C7.61246 17.3875 12.175 16.25 12.175 16.25C10.802 16.2394 9.44675 16.561 8.22496 17.1875C5.64996 18.475 14.5875 19.0375 19.2125 17.825ZM20.35 20.875C20.3227 20.9175 20.2889 20.9554 20.25 20.9875C26.5 19.3375 24.225 15.175 21.225 16.225C21.0595 16.2859 20.9159 16.3947 20.8125 16.5375C20.8125 16.5375 20.9875 16.475 21.35 16.3875C22.875 16.075 25 18.425 20.35 20.875ZM15 16.25C14.075 14.1625 10.925 12.325 15 9.1125C20.1125 5.1 17.5 2.5 17.5 2.5C18.55 6.6375 13.75 7.8875 12.075 10.4625C10.9125 12.225 12.6625 14.1125 15 16.25Z" fill="#212121ff"/>
<path d="M20.5124 26.65C16.7358 27.2965 12.882 27.3555 9.0874 26.825C9.0874 26.825 9.6624 27.3 12.6374 27.4875C17.1499 27.775 24.0749 27.3375 24.2499 25.2C24.2499 25.2 23.9249 26 20.5124 26.65Z" fill="#212121ff"/>
</svg>
