<svg width="20" height="20" viewBox="0 0 20 20" fill="none" xmlns="http://www.w3.org/2000/svg">
<g clip-path="url(#clip0_381_489)">
<mask id="mask0_381_489" maskUnits="userSpaceOnUse" x="0" y="0" width="21" height="20">
<path d="M0.000488281 0H20.0005V20H0.000488281V0Z" fill="white"/>
</mask>
<g mask="url(#mask0_381_489)">
<path d="M10.0005 0C15.5005 0 20.0005 4.5 20.0005 10C20.0005 15.5 15.5005 20 10.0005 20C4.50049 20 0.000488281 15.5 0.000488281 10C0.000488281 4.5 4.50049 0 10.0005 0ZM8.00049 13.3125C8.12549 13.875 8.12549 14.375 8.00049 14.8125L7.93799 15C7.93799 15.0625 7.87549 15.125 7.87549 15.125C7.75049 15.375 7.62549 15.5625 7.43799 15.8125C6.87549 16.4375 6.06299 16.6875 5.68799 16.5C5.31299 16.3125 5.50049 15.375 6.18799 14.6875C6.93799 13.9375 7.93799 13.4375 7.93799 13.4375L8.00049 13.3125ZM16.2505 4.25C15.813 2.5 12.8755 1.875 10.063 2.875C8.43799 3.5 6.62549 4.4375 5.31299 5.625C3.75049 7.0625 3.56299 8.3125 3.62549 8.8125C4.00049 10.625 6.50049 11.875 7.56299 12.75C7.25049 12.875 5.00049 14 4.50049 15.1875C3.93799 16.4375 4.56299 17.3125 5.00049 17.375C6.31299 17.75 7.68799 17.0625 8.37549 16C9.06299 14.9375 9.00049 13.625 8.68799 12.9375C9.17418 12.7874 9.69099 12.7658 10.188 12.875C11.938 13.0625 12.313 14.1875 12.188 14.625C12.063 15.0625 11.7505 15.3125 11.6255 15.4375C11.5005 15.5 11.438 15.5625 11.5005 15.5625C11.5005 15.625 11.563 15.625 11.688 15.625C11.813 15.625 12.6255 15.25 12.6255 14.375C12.688 13.3125 11.6255 12.125 9.81299 12.125C9.06299 12.125 8.56299 12.1875 8.25049 12.3125C8.25049 12.25 8.18799 12.25 8.18799 12.25C7.06299 11.0625 5.00049 10.1875 5.06299 8.5625C5.06299 8 5.31299 6.4375 9.06299 4.5625C12.1255 3 14.6255 3.4375 15.063 4.375C15.688 5.6875 13.7505 8.1875 10.563 8.5625C9.31299 8.6875 8.68799 8.25 8.56299 8.0625C8.37549 7.875 8.37549 7.875 8.31299 7.875C8.18799 7.9375 8.25049 8.0625 8.31299 8.1875C8.43799 8.4375 8.81299 8.875 9.50049 9.125C10.063 9.3125 11.5005 9.4375 13.2505 8.75C15.188 8 16.688 5.9375 16.2505 4.1875V4.25Z" fill="#C6C6C6"/>
</g>
</g>
<defs>
<clipPath id="clip0_381_489">
<rect width="20" height="20" fill="white" transform="translate(0.000488281)"/>
</clipPath>
</defs>
</svg>
