<svg width="18" height="18" viewBox="0 0 18 18" fill="none" xmlns="http://www.w3.org/2000/svg">
<g clip-path="url(#clip0_381_483)">
<path fill-rule="evenodd" clip-rule="evenodd" d="M0.000488281 0H18.0005V18H0.000488281V0ZM12.0005 7.2C11.364 7.2 10.7535 7.45286 10.3034 7.90294C9.85335 8.35303 9.60049 8.96348 9.60049 9.6C9.60049 10.2365 9.85335 10.847 10.3034 11.2971C10.7535 11.7471 11.364 12 12.0005 12H13.2005C13.5187 12 13.824 12.1264 14.049 12.3515C14.2741 12.5765 14.4005 12.8817 14.4005 13.2C14.4005 13.5183 14.2741 13.8235 14.049 14.0485C13.824 14.2736 13.5187 14.4 13.2005 14.4H12.0005C11.6822 14.4 11.377 14.2736 11.152 14.0485C10.9269 13.8235 10.8005 13.5183 10.8005 13.2H9.60049C9.60049 13.8365 9.85335 14.447 10.3034 14.8971C10.7535 15.3471 11.364 15.6 12.0005 15.6H13.2005C13.837 15.6 14.4475 15.3471 14.8975 14.8971C15.3476 14.447 15.6005 13.8365 15.6005 13.2C15.6005 12.5635 15.3476 11.953 14.8975 11.5029C14.4475 11.0529 13.837 10.8 13.2005 10.8H12.0005C11.6822 10.8 11.377 10.6736 11.152 10.4485C10.9269 10.2235 10.8005 9.91826 10.8005 9.6C10.8005 9.28174 10.9269 8.97652 11.152 8.75147C11.377 8.52643 11.6822 8.4 12.0005 8.4H13.4009C13.9529 8.4 14.4005 8.8476 14.4005 9.3996V9.6H15.6005V9.3996C15.6005 8.1852 14.6165 7.2 13.4009 7.2H12.0005ZM3.60049 7.2H9.60049V8.4H7.20049V15.6H6.00049V8.4H3.60049V7.2Z" fill="#C6C6C6"/>
</g>
<defs>
<clipPath id="clip0_381_483">
<rect width="18" height="18" fill="white" transform="translate(0.000488281)"/>
</clipPath>
</defs>
</svg>
