<svg width="20" height="20" viewBox="0 0 20 20" fill="none" xmlns="http://www.w3.org/2000/svg">
<path d="M9.99984 19C11.203 19.0001 12.3939 18.7589 13.5023 18.2907C14.6106 17.8226 15.6138 17.137 16.4526 16.2744C17.2914 15.4118 17.9487 14.3899 18.3857 13.2689C18.8227 12.1479 19.0305 10.9507 18.9968 9.74798C17.7382 10.6241 16.2266 11.0626 14.6945 10.9961C13.1624 10.9296 11.6946 10.3619 10.5165 9.38009C9.33841 8.3983 8.51534 7.05682 8.17377 5.5618C7.8322 4.06678 7.99103 2.50096 8.62585 1.10498C6.38407 1.45045 4.35541 2.62964 2.94574 4.40665C1.53607 6.18365 0.849364 8.4274 1.02301 10.689C1.19666 12.9506 2.21785 15.0632 3.88228 16.6042C5.5467 18.1451 7.73161 19.0008 9.99984 19Z" stroke="#F5F5F5" stroke-linecap="round" stroke-linejoin="round"/>
</svg>