<svg width="24" height="24" viewBox="0 0 24 24" fill="none" xmlns="http://www.w3.org/2000/svg">
<path d="M13.7799 18.2901C13.9299 18.2901 13.7799 18.4101 13.7799 18.2901ZM10.4299 15.5901C10.8199 15.7601 10.1199 14.9901 10.4299 15.5901ZM5.3999 15.8701C5.5499 16.1301 5.3999 15.7501 5.3999 15.8701ZM10.9999 16.2601C10.7299 15.8401 10.7999 16.3201 10.9999 16.5801C11.4799 17.0501 11.1799 16.3201 10.9999 16.2601Z" fill="#C6C6C6"/>
<path d="M20.2399 19.0599C19.7099 19.6899 19.2399 18.9899 18.6099 19.1899C17.5099 19.1899 18.6999 18.6899 18.6699 18.1899C18.0899 17.7399 17.4299 18.7999 17.0499 19.0899C16.1276 18.9306 15.23 18.6516 14.3799 18.2599C13.3898 17.7976 12.505 17.1373 11.7799 16.3199C10.9686 15.5113 10.3321 14.5447 9.9099 13.4799C9.37018 11.6137 9.08757 9.68252 9.0699 7.73989C9.1399 6.43989 10.5099 7.87989 11.0699 7.40989C10.8599 6.73989 9.7799 6.52989 9.1799 6.24989C8.5999 6.24989 8.3899 5.69989 7.7799 5.65989C7.7799 4.92989 6.6499 5.32989 6.2199 4.81989C6.6399 3.73989 4.8499 4.81989 4.9899 3.90989C5.5699 2.70989 3.2099 2.90989 4.1899 3.96989C5.1399 4.50989 3.2599 4.89989 3.8099 5.25989C3.85641 5.35024 3.87879 5.45107 3.87489 5.5526C3.87098 5.65414 3.84091 5.75295 3.7876 5.83946C3.73429 5.92597 3.65954 5.99724 3.57059 6.04637C3.48164 6.0955 3.38151 6.12082 3.2799 6.11989C2.5399 6.18989 2.6099 7.20989 3.3399 6.66989C4.1499 6.41989 3.4799 6.77989 3.0899 6.84989C2.88409 6.88119 2.68881 6.96146 2.52048 7.08394C2.35215 7.20642 2.2157 7.36754 2.1226 7.55374C2.0295 7.73994 1.98248 7.94577 1.98549 8.15392C1.9885 8.36208 2.04146 8.56646 2.1399 8.74989C2.53057 9.87234 2.86432 11.0138 3.1399 12.1699C3.75715 13.9224 4.67039 15.5561 5.8399 16.9999C6.45487 17.7717 7.18312 18.446 7.9999 18.9999C8.74987 19.5165 9.5676 19.927 10.4299 20.2199C11.967 20.6727 13.5578 20.9182 15.1599 20.9499C16.1317 20.9553 17.1022 20.875 18.0599 20.7099C18.9299 20.7999 19.5499 20.0599 20.3199 20.4499C20.7999 20.0299 21.4799 20.2199 21.9499 19.9099C22.2699 18.6899 20.7299 19.6399 20.2399 19.0599ZM18.4999 18.3199C18.5499 17.9799 18.2799 18.3199 18.4999 18.3199ZM10.8699 7.31989C10.7699 7.31989 10.7899 7.19989 10.7099 7.16989C9.9099 6.79989 11.0999 6.93989 10.8699 7.35989V7.31989ZM17.6299 18.7099C17.9099 18.4599 17.2799 18.6299 17.6299 18.7099ZM14.8199 18.8199C14.9999 18.6799 14.5899 18.8199 14.8199 18.8199ZM12.9399 17.6399C12.9399 17.5099 12.8099 17.6399 12.9399 17.6399ZM12.7199 17.4699C12.6299 17.2399 12.3599 17.4699 12.7199 17.4699ZM12.2999 17.1099C12.2999 16.7699 11.9699 17.1899 12.2999 17.1099ZM6.2999 5.44989C5.7699 5.16989 6.4099 5.77989 5.9599 5.76989C5.7199 5.76989 5.2699 5.24989 5.4199 4.98989C5.7199 5.14989 6.2499 5.19989 6.3399 5.48989L6.2999 5.44989ZM5.3799 4.63989H5.2699C5.2399 4.36989 6.1399 4.57989 5.4199 4.67989L5.3799 4.63989ZM4.3599 3.84989C3.9399 3.65989 4.3599 2.91989 4.7999 3.26989C5.3099 3.99989 3.8499 3.18989 4.3599 3.84989ZM4.8499 4.53989C5.0099 4.32989 4.5799 4.64989 4.8499 4.53989ZM5.3299 5.45989C5.9299 5.91989 4.9899 5.45989 4.6099 5.74989C3.9999 5.80989 5.2699 5.40989 5.3299 5.45989ZM5.4999 6.05989C5.8499 6.05989 7.3799 5.36989 6.8699 5.98989C7.3399 6.53989 6.9699 6.35989 6.6599 5.98989C6.9399 6.17989 6.7199 6.98989 6.2899 6.43989C5.8599 5.88989 5.7899 6.25989 6.1199 6.64989C5.7999 5.99989 4.8799 6.27989 4.2099 6.49989C3.7799 6.45989 5.3399 6.12989 5.4999 6.05989ZM3.5799 7.50989C3.4199 7.90989 3.8199 8.03989 4.1999 8.10989C4.8199 7.93989 3.7899 7.82989 4.2599 7.66989C4.5199 7.66989 3.4399 7.40989 4.3399 7.28989C5.2399 7.16989 6.0899 6.76989 6.9999 6.57989C7.77101 6.41034 8.56158 6.34642 9.3499 6.38989C9.6499 6.73989 9.1199 7.32989 8.5799 7.38989C7.93102 7.5986 7.25966 7.72952 6.5799 7.77989C5.7799 7.67989 5.2099 8.38989 4.3899 8.47989C4.6099 8.07989 4.2099 8.33989 3.7999 8.31989C4.0099 9.13989 2.3299 8.10989 3.3199 7.90989C2.5799 7.64989 2.5699 8.42989 2.6499 8.90989C1.9999 7.99989 2.7199 7.61989 3.5799 7.50989ZM5.4599 8.58989C5.6299 8.38989 5.2399 8.53989 5.4599 8.58989ZM4.7399 9.46989C4.7399 9.46989 4.3999 9.38989 4.5399 9.29989C5.5399 9.42989 3.6399 8.96989 4.6699 9.07989C5.3299 9.05989 5.1099 9.43989 4.7399 9.46989ZM5.0699 9.63989C5.0699 9.39989 4.9499 9.75989 5.0699 9.63989ZM4.3599 9.63989C4.5699 9.41989 3.9199 9.54989 4.3599 9.63989ZM4.2999 11.0699C4.2299 11.1699 4.1999 10.9899 4.2999 11.0699ZM3.9999 10.8999C3.9999 10.6899 3.4499 10.7099 3.9999 10.8999ZM3.8799 12.1799C3.6199 12.0899 3.6299 11.6799 3.5099 11.4599C3.1299 10.4299 3.9199 11.8599 3.8399 12.1799H3.8799ZM4.1099 10.6899C4.0599 10.1999 3.4199 10.6099 4.1099 10.6899ZM4.1099 10.3499H4.0199C3.2599 9.99989 4.4699 10.1799 3.9999 10.3499H4.1099ZM3.9999 9.55989C4.5799 9.19989 3.3899 9.24989 3.9999 9.55989ZM4.2099 9.81989C4.2599 9.49989 3.8699 9.87989 4.2099 9.81989ZM2.9099 9.88989C2.9099 9.65989 2.7899 9.96989 2.9099 9.88989ZM2.9999 9.74989C2.9999 9.47989 2.8399 9.74989 2.9999 9.74989ZM3.0799 8.74989C3.4099 8.49989 2.6799 8.64989 3.0799 8.74989ZM3.3399 10.7499C3.2199 10.0999 2.8999 10.6499 3.3399 10.7499ZM3.6399 11.9999C4.0599 12.5099 3.8999 12.7899 4.3299 13.4099C3.7699 13.0599 3.6599 12.2099 3.3299 11.6599C2.9199 10.7599 3.5599 11.6499 3.6399 11.9999ZM7.7299 18.3799C7.3899 18.3099 7.1599 17.9499 6.9199 17.7199C6.23727 17.2202 5.69624 16.5517 5.3499 15.7799C4.77419 15.0447 4.28435 14.2462 3.8899 13.3999C3.4799 12.4799 4.1399 13.4699 4.2399 13.8199C4.4499 14.4999 5.1199 14.8899 5.1799 15.3399C5.9199 15.7599 5.5399 16.4599 6.1799 16.6499C6.4499 16.5099 6.4799 17.4899 7.0699 17.2899C6.7399 17.4399 7.1999 17.6199 7.3699 17.8999C7.7199 17.8499 8.5399 18.7199 7.7299 18.4199V18.3799ZM4.6199 11.9999C4.9499 11.8899 4.3099 11.9299 4.6199 11.9999ZM4.8199 12.4699C5.3399 12.2699 4.2699 12.3299 4.8199 12.4699ZM6.2099 12.9399C6.6099 12.7699 6.3699 13.7199 6.7599 13.8399C7.5199 14.8399 6.2299 13.8399 5.7599 13.7699C5.8199 13.7699 5.3799 13.6499 5.5699 13.6099C5.4299 13.4599 5.1199 12.9499 5.8299 13.2899C6.4299 13.5299 6.4799 13.3499 6.2099 12.8999V12.9399ZM7.5199 14.6999C7.5199 14.8499 6.7999 14.8299 7.4599 15.1199C7.0799 15.1199 6.9599 15.1199 7.4599 15.4199C7.2399 15.5899 7.8899 15.7299 7.6699 15.9899C8.3299 16.5099 7.5499 16.1199 7.2699 15.9099C6.9899 15.6999 6.4199 15.5599 6.5199 15.4099C7.3299 15.8299 6.7299 15.4099 6.3699 15.1099C7.0199 15.2699 5.8599 14.6299 6.4699 14.7999C6.6599 14.8499 6.1999 14.4199 6.7999 14.7299C6.2599 14.2099 7.2699 14.6099 7.5199 14.6599V14.6999ZM7.9999 14.5299C7.9999 14.1899 7.3899 14.3899 7.9999 14.5299ZM7.8299 16.5299C8.2199 16.5299 7.2199 16.2699 7.8299 16.5299ZM7.3799 16.3599C7.8999 16.3599 6.6699 16.1299 7.3799 16.3599ZM7.2899 16.4699C7.2899 16.2999 7.0699 16.4699 7.2899 16.4699ZM6.2099 14.9199C6.0099 14.5899 5.4899 14.6199 6.2099 14.9199ZM5.6699 14.5699C5.5899 14.2399 5.0899 14.2399 5.6699 14.5699ZM5.6699 15.2199C5.5999 14.9699 5.0999 14.7799 5.6699 15.2199ZM5.5199 13.8799C5.6499 13.6799 5.1699 13.8799 5.5199 13.8799ZM7.9999 17.3799C7.9999 17.2399 7.4899 17.2299 7.9999 17.3799ZM7.6299 16.9999H7.4699C6.7899 16.4599 7.7799 16.6199 8.2199 16.8599C9.1899 16.9999 7.9999 17.2499 7.6299 16.9999ZM10.3299 18.6499C10.4899 18.3799 9.6499 18.4899 10.3299 18.6499ZM10.1599 18.1299C10.1099 18.1299 10.0599 18.0199 10.1599 18.1299ZM9.2999 16.7899C8.7099 16.6499 9.5099 16.5999 9.6599 16.7899C10.6799 16.9999 9.5999 17.0499 9.2999 16.7899ZM9.5099 17.9999H9.3999L9.2699 17.9399C8.7099 17.3499 10.4599 18.2199 9.5099 17.9999ZM9.2299 18.6899C9.2299 18.5499 9.0799 18.7499 9.2299 18.6899ZM9.5199 17.4999L9.3599 17.4499C8.6999 16.9999 10.1999 17.5399 9.5199 17.4499V17.4999ZM9.6799 19.2199C9.9399 18.9699 9.2799 19.0599 9.6799 19.2199ZM9.7799 18.4799C10.1399 18.3499 9.1999 18.3399 9.7799 18.4799ZM9.9099 17.8699C9.9599 17.6599 9.4699 17.8099 9.9099 17.8699ZM9.1899 16.9899C9.6499 17.0499 9.6599 17.2599 9.1899 17.1299C9.0999 17.1299 8.9499 17.1299 8.9099 16.9599C8.1499 16.4599 8.9399 16.7099 9.1899 16.9399V16.9899ZM9.1299 18.9899C9.1299 18.7699 8.9299 19.1099 9.1299 18.9899ZM8.8199 18.4799C9.2199 18.2199 8.2899 18.4799 8.8199 18.4799ZM8.6999 18.8299C8.8699 18.7499 8.4399 18.7299 8.6999 18.8299ZM8.9999 17.9399C9.2499 17.7599 8.4799 17.7999 8.9999 17.9399ZM8.8399 17.3699C8.7799 17.2099 8.5599 17.3699 8.8399 17.3699ZM8.2999 16.4199C9.4799 16.7999 7.7299 15.9599 8.2999 16.4199ZM8.2399 16.6099C8.2399 16.6699 8.1299 16.5199 8.2399 16.6099ZM11.8899 20.3899C11.0001 20.2311 10.1379 19.9448 9.3299 19.5399L8.9999 19.3399C8.4299 19.0299 8.4999 18.9599 9.0599 19.2699C9.2499 19.4299 10.6499 19.9999 9.9899 19.6199C9.6999 19.5499 8.0899 18.6699 9.1499 19.0499C10.0332 19.5182 10.9488 19.9225 11.8899 20.2599C12.6853 20.4486 13.5073 20.4994 14.3199 20.4099C14.9699 20.7399 15.6499 20.3299 16.3199 20.6199C14.8344 20.7989 13.3291 20.7211 11.8699 20.3899H11.8899ZM10.6399 19.6899C10.7999 19.4599 10.1299 19.5999 10.6399 19.6899ZM11.3699 18.6899C11.9699 18.4599 10.7899 18.5799 11.3699 18.6899ZM12.2099 19.9999C13.2099 20.3699 11.6099 20.1199 11.2799 19.9099C10.3599 19.5299 11.9999 19.9999 12.2099 19.9999ZM11.1499 18.8999C12.0499 18.8999 10.3399 18.7799 11.1499 18.8999ZM12.6699 19.7499C12.6699 19.4499 12.3799 19.9799 12.6699 19.7499ZM12.9599 19.7999C12.9599 19.6299 12.8099 19.8599 12.9599 19.7999ZM13.2299 19.4199C13.2299 19.1899 13.0699 19.6199 13.2299 19.4199ZM13.5399 19.4199C14.0099 19.0299 13.0899 19.5899 13.5399 19.4199ZM13.6799 19.4199C14.1699 18.9999 14.1899 19.1999 14.1799 19.5499C13.7499 20.0299 14.0099 19.3499 13.7399 19.6099C13.4699 19.8699 13.5499 19.5099 13.6799 19.4399V19.4199ZM14.5099 19.8699C15.0199 19.3299 14.0099 19.8699 14.5099 19.8699ZM14.5099 20.0499C14.5099 19.9199 14.3099 20.0999 14.5099 20.0499ZM14.3499 19.6999C15.2899 19.0899 13.9599 19.4399 14.3499 19.6999ZM14.9199 19.7899H14.8399C14.8099 19.5599 15.3799 19.5199 14.9199 19.8099V19.7899ZM15.0699 19.9799C15.5399 19.5799 14.7699 19.8999 15.0699 19.9799ZM15.4299 19.8799C15.9099 19.4799 14.9199 20.0599 15.4299 19.8799ZM15.6499 19.9899L15.5299 20.0699C15.2999 19.9299 16.2399 19.5899 15.6499 19.9999V19.9899ZM15.2199 19.4599C14.6799 19.2799 13.8199 18.6999 13.2199 19.0899C12.4199 19.5999 13.6299 18.5299 12.9799 19.0099C12.3199 19.7999 12.5299 18.5099 11.8899 18.8999C11.8899 18.7799 11.3199 18.7399 11.7199 18.5299C11.3599 18.5299 11.5899 18.4799 11.7199 18.1899C11.5599 18.1899 10.7199 18.1899 10.3599 17.8999C9.9599 17.3799 10.4299 17.5999 10.8399 17.6699C10.1699 17.7899 11.0799 18.1699 11.5199 17.9599C11.3199 17.8699 11.0899 17.4399 10.5199 17.0599C9.83145 16.6825 9.12006 16.3485 8.3899 16.0599C7.5499 15.5599 8.5699 15.8799 8.8599 16.1399C9.6999 16.5099 9.3699 15.6299 8.8599 15.3999C8.3199 15.3999 8.1899 14.8099 7.7599 14.8399C8.4299 14.9499 8.8999 14.6699 8.1499 13.9899C7.3999 13.3099 8.4499 14.6199 8.0399 14.4299C7.8499 14.1799 7.9899 13.8299 7.3899 13.6999C7.3899 13.9299 7.3099 14.2799 7.1799 13.7999C7.0099 13.7999 6.8199 14.0099 6.6799 13.5199C6.8099 12.9499 6.1199 12.8199 6.0099 12.4599C6.6099 12.8399 6.8799 12.5399 6.4599 12.1299C6.0399 11.7199 6.1299 12.0199 5.9699 12.1299C5.3799 12.7299 5.9099 11.1299 5.6499 11.5699C5.3899 11.5699 5.5399 11.8599 5.5499 12.2199C4.6899 12.0099 5.7499 12.6699 5.9999 13.0299C5.6099 12.6299 5.6799 13.3399 5.3499 13.0299C5.2399 12.7299 5.2299 12.2599 4.6799 12.1799C5.2999 11.9599 4.3199 11.5299 4.3999 11.5099C4.7499 11.1899 4.7999 10.7499 5.2199 11.4399C4.6899 11.4399 5.2199 12.3199 5.3399 12.0399C5.3399 11.5699 5.5599 11.0399 4.7499 10.8499C4.5099 11.1699 4.0999 10.2199 4.5699 10.4199C4.5099 9.78989 5.3099 10.1599 5.2599 9.88989C5.6799 9.70989 4.7599 9.11989 5.2599 8.88989C5.6399 9.12989 6.6199 8.52989 5.9599 8.44989C6.3799 8.44989 6.7099 8.62989 6.7499 8.20989C7.0799 8.27989 7.9899 8.56989 7.1699 8.11989C7.52981 7.97352 7.91185 7.889 8.2999 7.86989C9.0899 7.25989 8.9299 8.86989 8.7499 9.31989C9.0499 9.10989 8.9899 10.2599 8.8899 10.6899C9.0499 10.4699 9.1199 11.0499 8.8899 11.4599C8.8899 11.3899 9.2899 11.3299 9.0099 11.8099C8.7899 11.3399 8.6999 12.8099 8.8399 12.1299C9.2099 11.5199 9.1199 12.1299 9.2299 12.3699C9.3099 12.9199 9.5499 13.4299 9.6299 13.9299C9.9799 14.2799 9.4799 14.0399 9.4799 14.5199C9.5899 14.3799 10.0599 14.7099 10.0499 15.1999C10.0499 14.4199 10.1399 15.0199 10.5199 15.1999C10.7756 15.7234 11.1132 16.2027 11.5199 16.6199C11.8899 17.0499 11.5199 16.7499 11.6599 17.0099C11.9067 17.3505 12.2184 17.6389 12.5771 17.8586C12.9358 18.0783 13.3344 18.2249 13.7499 18.2899C13.9039 18.5576 14.1389 18.7697 14.421 18.8954C14.7031 19.0212 15.0178 19.0543 15.3199 18.9899C14.7199 19.3599 16.9999 19.4599 16.2299 19.6599C15.9999 19.8199 15.6099 19.4599 15.2199 19.4799V19.4599ZM8.6999 15.8899C8.6999 15.6899 8.4599 15.8899 8.6999 15.8899ZM9.0799 16.1099C8.9599 15.8699 8.8999 16.1099 9.0799 16.1099ZM6.4699 12.4599C6.5699 12.3699 6.2299 12.3899 6.4699 12.4599ZM5.8799 12.4599C5.8799 12.1199 5.6199 12.4599 5.8799 12.4599ZM5.5799 12.3799C5.5799 12.2699 5.4799 12.4299 5.5799 12.3799ZM16.5799 20.6299C16.8999 20.4099 16.1899 20.5599 16.5799 20.6299ZM17.3099 19.5799H17.0099C17.0699 19.1299 18.3399 19.4799 18.8599 19.4899C18.6999 19.8299 17.7299 19.5299 17.3099 19.6199V19.5799ZM19.3099 19.5799C19.4299 19.2599 19.0399 19.5799 19.3099 19.5799ZM20.3099 19.4899C20.3099 19.1899 20.0599 19.6199 20.3099 19.4899ZM20.7899 19.5999C20.2699 19.4799 21.0299 19.4799 21.1899 19.4599C22.1299 19.4799 21.1899 19.6199 20.7199 19.6199L20.7899 19.5999Z" fill="#C6C6C6"/>
<path d="M6.51002 7.11009C7.51002 6.91009 6.13002 6.78009 5.82002 7.11009C6.00002 7.24009 6.23002 6.90009 6.51002 7.11009ZM5.69002 7.24009C5.87002 7.02009 5.69002 7.43009 5.69002 7.24009ZM8.31002 6.76009C8.98002 6.65009 8.42002 6.35009 8.22002 6.86009C8.29002 7.00009 8.33002 6.81009 8.31002 6.76009ZM7.69002 6.86009C8.62002 7.22009 7.64002 5.86009 7.69002 6.86009ZM4.77002 7.79009C4.88829 7.7841 5.00497 7.81945 5.10002 7.89009C5.85002 8.41009 5.00002 7.05009 4.77002 7.79009Z" fill="#C6C6C6"/>
<path d="M4.81006 7.42998C5.10006 7.21998 4.97006 7.55998 4.81006 7.42998ZM5.18006 7.43998L5.32006 7.55998C6.00006 7.61998 5.21006 7.09998 5.18006 7.43998ZM10.6901 16C10.7801 16.3 10.6901 15.61 10.6901 16ZM5.91006 11C6.09006 10.82 6.01006 11.18 5.91006 11ZM6.00006 11.61C6.19006 11.95 6.00006 11.1 6.00006 11.61ZM6.21006 11.12C6.54006 11.33 5.93006 10.6 6.21006 11.12ZM5.80006 10.3C5.87006 10.45 6.04006 10.46 6.17006 10.5C7.49006 11.11 5.22006 9.49998 5.80006 10.3ZM6.34006 11.73C6.65006 12.26 6.52006 11.36 6.34006 11.73ZM6.82006 11.57C7.19006 12.49 6.59006 11.45 6.52006 11.14C6.52863 11.4914 6.62488 11.8352 6.80006 12.14C7.14006 12.65 6.99006 11.86 7.35006 12.37C7.15006 11.92 7.45006 12.17 7.41006 11.97C7.37006 11.77 6.41006 10.8 6.82006 11.57ZM7.18006 13.35C7.36006 13.35 7.27006 13.66 7.18006 13.35ZM5.85006 8.99998C5.96006 8.99998 5.91006 9.13998 5.85006 8.99998ZM6.52006 9.41998C6.84006 9.82998 6.69006 9.05998 6.52006 9.41998ZM5.63006 10.56L5.77006 10.71C6.76006 11 4.72006 9.75998 5.63006 10.56ZM6.33006 10.19C7.33006 10.6 6.24006 9.91998 5.89006 9.98998C6.00006 10.12 6.21006 10.06 6.33006 10.19ZM6.15006 9.74998C6.33006 9.92998 6.97006 10.26 6.46006 9.80998C6.78006 9.74998 6.46006 9.64998 6.22006 9.48998C5.78006 8.81998 6.29006 9.54998 6.15006 9.74998Z" fill="#C6C6C6"/>
<path d="M5.50993 10.6401C4.97993 10.2001 5.66993 10.8501 5.44993 10.8401C4.89993 10.4401 5.12993 10.7301 5.44993 11.0401C5.77993 11.5401 6.04993 10.7401 5.50993 10.6401ZM7.64993 11.2801C7.76993 11.3901 7.58993 10.6001 7.64993 11.2801ZM8.66993 7.78006C8.73993 7.68006 8.66993 7.90006 8.66993 7.78006ZM8.99993 12.4701C8.99993 12.6801 8.99993 12.2901 8.99993 12.4701ZM8.70993 11.2501C8.80993 10.4701 8.78993 11.7101 8.70993 11.2501ZM8.84993 11.4701V11.5701C9.05993 11.0601 8.88993 10.7801 8.84993 11.4701ZM8.74993 8.77006C8.60993 9.47006 8.47993 9.18006 8.66993 8.66006C8.61993 7.99006 8.21993 9.07006 8.39993 9.38006C8.68993 9.85006 8.99993 8.22006 8.74993 8.77006ZM9.75993 14.7501C9.88993 15.1001 9.86993 14.3301 9.75993 14.7501ZM8.40993 10.4701C8.40993 10.6701 8.40993 10.3301 8.40993 10.4701ZM9.04993 12.1701C9.15993 11.7901 9.04993 12.4301 9.04993 12.1701ZM9.49993 14.0001L9.56993 14.1101C9.70993 13.6201 9.20993 13.3201 9.49993 14.0001ZM7.93993 13.4801C8.20993 13.7001 7.80993 13.2501 7.93993 13.4801ZM9.16993 12.6301C9.24993 12.9201 9.16993 12.2101 9.16993 12.6301ZM8.13993 9.81006C8.28993 10.1401 8.08993 9.54006 8.13993 9.81006Z" fill="#C6C6C6"/>
<path d="M8.30004 10.2299C8.54004 10.5699 8.04004 9.58992 8.30004 10.2299ZM8.24003 11.3799C8.11004 10.3799 7.82004 11.8299 8.24003 12.0699C8.37003 12.4099 8.49004 12.2699 8.54004 11.8799C8.22004 11.8799 8.62003 11.2599 8.24003 11.3799Z" fill="#C6C6C6"/>
</svg>
