<svg width="24" height="24" viewBox="0 0 24 24" fill="none" xmlns="http://www.w3.org/2000/svg">
<path d="M3.10207 3.03455C3.24538 2.9986 3.39436 2.99122 3.54052 3.01284C3.68668 3.03447 3.82714 3.08467 3.9539 3.16058C4.08065 3.23649 4.19121 3.33663 4.27926 3.45528C4.36731 3.57392 4.43113 3.70875 4.46707 3.85205L5.91307 9.64055C5.93923 9.75395 5.98771 9.86099 6.0557 9.95544C6.12368 10.0499 6.20981 10.1298 6.30903 10.1906C6.40826 10.2514 6.51861 10.2918 6.63363 10.3095C6.74865 10.3272 6.86604 10.3218 6.97895 10.2936C7.09185 10.2654 7.198 10.2149 7.2912 10.1453C7.3844 10.0756 7.46279 9.98803 7.52178 9.88772C7.58076 9.78741 7.61918 9.67634 7.63477 9.56102C7.65035 9.4457 7.64281 9.32843 7.61257 9.21605L6.03457 2.89805C5.99628 2.75394 5.98701 2.60365 6.00732 2.45592C6.02763 2.30819 6.07711 2.16597 6.15287 2.03753C6.22863 1.9091 6.32918 1.797 6.44865 1.70777C6.56813 1.61854 6.70415 1.55395 6.84881 1.51776C6.99347 1.48157 7.14388 1.47451 7.2913 1.49697C7.43872 1.51943 7.5802 1.57097 7.70751 1.64861C7.83483 1.72624 7.94545 1.8284 8.03292 1.94917C8.1204 2.06993 8.183 2.20688 8.21707 2.35205L9.91507 9.15155C9.97097 9.37752 10.1143 9.57203 10.3136 9.69228C10.5129 9.81254 10.7519 9.8487 10.9778 9.7928C11.2038 9.73691 11.3983 9.59354 11.5186 9.39424C11.6388 9.19493 11.675 8.95602 11.6191 8.73005L10.5421 4.36505C10.4697 4.07544 10.5153 3.76892 10.6689 3.51293C10.8225 3.25695 11.0715 3.07246 11.3611 3.00005C11.6507 2.92765 11.9572 2.97326 12.2132 3.12685C12.4692 3.28045 12.6537 3.52944 12.7261 3.81905L13.9186 8.65355C13.9479 8.76623 13.9992 8.87202 14.0694 8.96488C14.1396 9.05775 14.2275 9.13587 14.3279 9.19479C14.4283 9.25371 14.5394 9.29227 14.6547 9.30827C14.77 9.32428 14.8874 9.3174 15.0001 9.28805C15.1127 9.2587 15.2185 9.20745 15.3114 9.13721C15.4043 9.06698 15.4824 8.97914 15.5413 8.87871C15.6002 8.77829 15.6388 8.66724 15.6548 8.55191C15.6708 8.43658 15.6639 8.31923 15.6346 8.20655L15.0001 5.88755C14.9255 5.59854 14.9688 5.29172 15.1204 5.03461C15.272 4.7775 15.5196 4.59115 15.8086 4.51655C16.0976 4.44196 16.4044 4.48524 16.6615 4.63686C16.9186 4.78848 17.105 5.03603 17.1796 5.32505L18.2986 9.45605L18.3016 9.46655C18.3166 9.50855 18.3316 9.55055 18.3406 9.59555C18.5581 10.6516 18.7231 11.7481 18.7501 12.7306C18.7996 14.5651 18.5161 16.9441 18.2851 18.5371C18.182 19.2262 17.8833 19.8714 17.4243 20.3957C16.9654 20.9201 16.3655 21.3016 15.6961 21.4951L13.0201 22.2871C10.8751 22.9216 8.62357 22.1131 7.16707 20.5306C5.90707 19.1581 4.26457 17.6356 2.68057 16.8841C2.19084 16.6566 1.80736 16.2495 1.60957 15.7471C1.49753 15.4639 1.47352 15.1535 1.54069 14.8564C1.60786 14.5594 1.76308 14.2895 1.98607 14.0821C2.47086 13.6096 3.0801 13.285 3.74257 13.1461C3.97057 13.1011 4.20757 13.0786 4.45507 13.0831L2.28457 4.39805C2.24861 4.25475 2.24124 4.10576 2.26286 3.95961C2.28448 3.81345 2.33469 3.67299 2.4106 3.54623C2.48651 3.41948 2.58665 3.30892 2.70529 3.22087C2.82394 3.13282 2.95876 3.0705 3.10207 3.03455ZM20.1451 1.50755C20.2426 1.49357 20.342 1.49896 20.4375 1.52341C20.533 1.54786 20.6227 1.5909 20.7016 1.65005C21.8995 2.62821 22.779 3.94102 23.2278 5.42106C23.6767 6.90109 23.6745 8.48127 23.2216 9.96005C23.1783 10.1174 23.0839 10.2558 22.9533 10.3536C22.8227 10.4514 22.6632 10.5029 22.5001 10.5001L22.2901 10.4701C22.0991 10.4144 21.9381 10.2851 21.8425 10.1107C21.7468 9.93627 21.7244 9.73101 21.7801 9.54005C22.1478 8.35406 22.156 7.08572 21.8036 5.89509C21.4512 4.70445 20.754 3.64487 19.8001 2.85005C19.6814 2.76099 19.5918 2.63871 19.5426 2.49869C19.4934 2.35867 19.4869 2.20721 19.5238 2.06348C19.5607 1.91975 19.6395 1.7902 19.7501 1.69124C19.8607 1.59228 19.9981 1.52836 20.1451 1.50755ZM19.1851 3.88505C19.1057 3.82789 19.0156 3.78715 18.9203 3.76524C18.8249 3.74333 18.7261 3.74067 18.6297 3.75744C18.5333 3.77421 18.4412 3.81005 18.3589 3.86287C18.2765 3.9157 18.2055 3.98443 18.1501 4.06505C18.0916 4.14271 18.049 4.23119 18.0249 4.32537C18.0008 4.41955 17.9955 4.51758 18.0095 4.6138C18.0234 4.71002 18.0563 4.80253 18.1062 4.88598C18.156 4.96944 18.2219 5.0422 18.3001 5.10005C18.7361 5.47888 19.0732 5.95823 19.2823 6.49663C19.4914 7.03503 19.5661 7.61627 19.5001 8.19005C19.4919 8.28861 19.5032 8.38781 19.5335 8.48196C19.5638 8.5761 19.6124 8.66332 19.6766 8.73861C19.7407 8.81389 19.8191 8.87575 19.9072 8.92062C19.9953 8.96549 20.0915 8.99248 20.1901 9.00005C20.379 9.00066 20.5612 8.92993 20.7003 8.80201C20.8393 8.67408 20.925 8.49839 20.9401 8.31005C21.0333 7.48508 20.9219 6.64985 20.6159 5.87811C20.3098 5.10638 19.8184 4.42187 19.1851 3.88505Z" fill="#D8B389"/>
</svg>
