<svg width="24" height="24" viewBox="0 0 24 24" fill="none" xmlns="http://www.w3.org/2000/svg">
<path d="M16.8049 1C15.9246 1.00646 15.0492 1.1309 14.2019 1.37L14.1419 1.388C13.6082 1.2966 13.0683 1.24612 12.5269 1.237C11.4139 1.218 10.4569 1.48 9.68694 1.917C8.92694 1.661 7.35094 1.22 5.68994 1.308C4.53294 1.369 3.27094 1.71 2.33594 2.668C1.40294 3.626 0.909938 5.108 1.01394 7.125C1.04194 7.682 1.20494 8.589 1.47694 9.765C1.74694 10.94 2.12894 12.315 2.60394 13.57C3.07894 14.826 3.59994 15.954 4.41394 16.72C4.81994 17.104 5.37894 17.427 6.03794 17.4C6.50094 17.382 6.91994 17.185 7.28094 16.894C7.45694 17.119 7.64494 17.217 7.81594 17.308C8.03094 17.422 8.24094 17.5 8.45794 17.552C9.0589 17.7058 9.68473 17.7368 10.2979 17.643C10.5649 17.6 10.8459 17.516 11.1259 17.396C11.1359 17.698 11.1479 17.994 11.1609 18.294C11.1989 19.244 11.2239 20.121 11.5179 20.89C11.5649 21.016 11.6939 21.663 12.2049 22.234C12.7149 22.806 13.7149 23.162 14.8529 22.926C15.6559 22.759 16.6779 22.458 17.3559 21.522C18.0259 20.596 18.3289 19.267 18.3889 17.113C18.4039 16.997 18.4219 16.898 18.4409 16.805L18.6009 16.819H18.6189C19.4759 16.857 20.4059 16.739 21.1829 16.389C21.8709 16.079 22.3909 15.767 22.7699 15.212C22.8649 15.075 22.9689 14.909 22.9969 14.622C23.0249 14.337 22.8569 13.889 22.5759 13.683C22.0129 13.269 21.6599 13.426 21.2809 13.503C20.9079 13.583 20.5279 13.627 20.1449 13.636C21.2379 11.852 22.0209 9.956 22.4679 8.278C22.7319 7.288 22.8809 6.375 22.8929 5.577C22.9049 4.779 22.8379 4.072 22.3449 3.46C20.8039 1.55 18.6369 1.022 16.9609 1.004C16.9089 1.003 16.8569 1.002 16.8049 1.003V1ZM16.7609 1.587C18.3459 1.572 20.3719 2.004 21.8259 3.807C22.1529 4.212 22.2499 4.804 22.2389 5.534C22.2269 6.263 22.0879 7.135 21.8339 8.091C21.3409 9.943 20.4089 12.101 19.0959 14.039C19.1427 14.0711 19.193 14.0976 19.2459 14.118C19.5199 14.228 20.1439 14.322 21.3909 14.074C21.7039 14.009 21.9339 13.966 22.1719 14.142C22.229 14.1892 22.2743 14.2489 22.3044 14.3166C22.3344 14.3843 22.3483 14.458 22.3449 14.532C22.3319 14.6437 22.2895 14.75 22.2219 14.84C21.9819 15.191 21.5059 15.524 20.8959 15.798C20.3569 16.042 19.5829 16.169 18.8969 16.177C18.5529 16.18 18.2359 16.154 17.9669 16.073L17.9489 16.067C17.8449 17.038 17.6059 18.957 17.4509 19.832C17.3259 20.538 17.1079 21.099 16.6909 21.519C16.2749 21.939 15.6869 22.192 14.8949 22.357C13.9139 22.561 13.1989 22.341 12.7379 21.964C12.2779 21.589 12.0669 21.09 11.9399 20.784C11.8529 20.574 11.8079 20.301 11.7639 19.936C11.7156 19.499 11.6833 19.0604 11.6669 18.621C11.6381 17.8504 11.6288 17.0791 11.6389 16.308C11.2289 16.672 10.7189 16.914 10.1719 17.005C9.52194 17.112 8.93994 17.007 8.59294 16.923C8.42279 16.8812 8.25828 16.819 8.10294 16.738C7.94094 16.655 7.78794 16.561 7.68594 16.375C7.62584 16.2688 7.60663 16.1443 7.63194 16.025C7.66461 15.9037 7.73718 15.797 7.83794 15.722C8.02594 15.574 8.27294 15.492 8.64594 15.416C9.32594 15.281 9.56294 15.188 9.70694 15.077C9.82994 14.982 9.96894 14.79 10.2149 14.507C10.2137 14.4947 10.2127 14.4823 10.2119 14.47C9.77327 14.4581 9.3432 14.3455 8.95494 14.141C8.81394 14.286 8.08994 15.029 7.20694 16.059C6.83594 16.49 6.42594 16.737 5.99294 16.755C5.55994 16.773 5.16894 16.561 4.83694 16.249C4.17194 15.623 3.64194 14.546 3.17994 13.329C2.71994 12.111 2.34394 10.755 2.07794 9.6C1.80994 8.445 1.65194 7.514 1.62994 7.065C1.52994 5.156 1.98994 3.87 2.77994 3.059C3.56994 2.248 4.65194 1.941 5.70794 1.882C7.60194 1.776 9.40094 2.417 9.76494 2.555C10.4659 2.093 11.3689 1.805 12.4979 1.823C13.0331 1.83032 13.5657 1.8974 14.0859 2.023L14.1049 2.015C14.3339 1.937 14.5669 1.871 14.8029 1.819C15.4454 1.67371 16.1013 1.59661 16.7599 1.589L16.7609 1.587ZM16.9039 2.201H16.7669C16.2259 2.2083 15.6868 2.26723 15.1569 2.377C16.2087 2.83501 17.1328 3.54283 17.8489 4.439C18.2826 4.97524 18.6425 5.56717 18.9189 6.199C19.0229 6.441 19.0929 6.646 19.1319 6.804C19.1519 6.884 19.1659 6.951 19.1699 7.021C19.1738 7.06531 19.1701 7.10994 19.1589 7.153L19.1529 7.165C19.1819 7.968 18.9769 8.512 18.9519 9.278C18.9329 9.834 19.0789 10.487 19.1149 11.198C19.1489 11.868 19.0659 12.603 18.6179 13.325C18.6559 13.369 18.6899 13.413 18.7259 13.457C19.9109 11.647 20.7659 9.643 21.2209 7.936C21.4639 7.016 21.5939 6.183 21.6049 5.523C21.6149 4.863 21.4879 4.384 21.3259 4.185C20.0579 2.612 18.3429 2.212 16.9039 2.201ZM12.3789 2.436C11.2619 2.438 10.4599 2.766 9.85294 3.256C9.22594 3.763 8.80594 4.456 8.52994 5.167C8.26276 5.87753 8.09942 6.62286 8.04494 7.38L8.05794 7.373C8.39494 7.189 8.83794 7.006 9.31194 6.9C9.78694 6.794 10.2979 6.761 10.7609 6.935C11.2239 7.11 11.6069 7.519 11.7459 8.141C12.4109 11.127 11.5389 12.237 11.2169 13.074C11.0951 13.3775 10.9906 13.6877 10.9039 14.003C10.9449 13.993 10.9859 13.983 11.0259 13.979C11.2016 13.9695 11.3769 14.0039 11.5359 14.079C11.8599 14.209 12.0819 14.481 12.2019 14.793C12.2329 14.875 12.2559 14.963 12.2689 15.053C12.2829 15.091 12.2889 15.13 12.2879 15.17C12.252 16.3118 12.2561 17.4545 12.2999 18.596C12.3219 19.09 12.3539 19.524 12.3949 19.867C12.4349 20.209 12.4929 20.469 12.5299 20.557C12.6499 20.851 12.8269 21.235 13.1469 21.496C13.4669 21.756 13.9239 21.93 14.7609 21.756C15.4869 21.605 15.9349 21.396 16.2349 21.093C16.5329 20.792 16.7119 20.373 16.8259 19.73C16.9969 18.767 17.3409 15.976 17.3819 15.45C17.3639 15.055 17.4239 14.75 17.5539 14.518C17.6889 14.28 17.8969 14.134 18.0759 14.055C18.1659 14.015 18.2499 13.989 18.3189 13.97C18.2457 13.8681 18.169 13.7687 18.0889 13.672C17.8311 13.3689 17.6192 13.0296 17.4599 12.665C17.3839 12.5147 17.3028 12.3669 17.2169 12.222C17.0919 12.002 16.9329 11.727 16.7669 11.418C16.4339 10.799 16.0719 10.049 15.8839 9.318C15.6969 8.589 15.6689 7.834 16.1489 7.301C16.5749 6.828 17.3209 6.632 18.4419 6.742C18.4089 6.646 18.3889 6.566 18.3329 6.438C18.0786 5.85769 17.748 5.3139 17.3499 4.821C16.3999 3.643 14.8629 2.475 12.4869 2.437L12.3789 2.436ZM6.10294 2.483C5.98294 2.483 5.86294 2.487 5.74294 2.493C4.78894 2.546 3.88694 2.815 3.24194 3.479C2.59494 4.142 2.16994 5.23 2.26194 7.032C2.28094 7.372 2.43394 8.328 2.69594 9.462C2.95794 10.598 3.32994 11.933 3.77594 13.112C4.22194 14.292 4.76394 15.319 5.27794 15.805C5.53694 16.048 5.76194 16.146 5.96594 16.138C6.17094 16.128 6.41694 16.014 6.71894 15.663C7.26895 15.0194 7.83923 14.3934 8.42894 13.786C8.01246 13.4364 7.69174 12.9867 7.49694 12.479C7.30467 11.9759 7.2461 11.4315 7.32694 10.899C7.42394 10.221 7.43694 9.587 7.42594 9.087C7.41394 8.599 7.37794 8.275 7.37794 8.072V8.044C7.37704 6.98715 7.56639 5.93876 7.93694 4.949C8.20094 4.267 8.59494 3.574 9.18594 3.013C8.60594 2.828 7.57594 2.546 6.46094 2.493C6.34104 2.48675 6.221 2.48341 6.10094 2.483H6.10294ZM17.8169 7.325C17.1759 7.333 16.8159 7.494 16.6269 7.704C16.3589 8.002 16.3339 8.524 16.4999 9.168C16.6649 9.812 17.0069 10.533 17.3289 11.131C17.4889 11.431 17.6449 11.701 17.7709 11.919C17.8979 12.139 17.9909 12.295 18.0469 12.429C18.0989 12.551 18.1569 12.659 18.2149 12.76C18.4629 12.251 18.5079 11.752 18.4819 11.231C18.4489 10.587 18.2949 9.928 18.3179 9.261C18.3429 8.481 18.5019 7.972 18.5159 7.369C18.2841 7.33986 18.0506 7.32517 17.8169 7.325ZM10.0369 7.43C9.84107 7.43182 9.64595 7.45462 9.45494 7.498C9.07525 7.5874 8.70883 7.7259 8.36494 7.91C8.24994 7.97 8.13894 8.04 8.03494 8.119L8.01494 8.137C8.02094 8.271 8.04794 8.596 8.05994 9.073C8.06994 9.596 8.05794 10.263 7.95394 10.983C7.72794 12.551 8.89994 13.849 10.2779 13.851C10.3579 13.529 10.4909 13.203 10.6229 12.859C11.0069 11.856 11.7619 11.125 11.1259 8.27C11.0219 7.803 10.8159 7.614 10.5319 7.507C10.3727 7.45243 10.2052 7.42636 10.0369 7.43ZM17.5169 7.617H17.5649C17.6269 7.619 17.6849 7.626 17.7349 7.637C17.781 7.64616 17.825 7.66343 17.8649 7.688C17.883 7.69887 17.8987 7.71337 17.9109 7.73057C17.9231 7.74778 17.9316 7.76734 17.9359 7.788V7.796C17.9375 7.83983 17.9257 7.8831 17.9019 7.92C17.8739 7.97032 17.8389 8.01644 17.7979 8.057C17.7012 8.16007 17.5733 8.22857 17.4339 8.252C17.2974 8.26817 17.1596 8.23443 17.0459 8.157C16.9999 8.12712 16.9585 8.09074 16.9229 8.049C16.8924 8.01678 16.8716 7.97656 16.8629 7.933C16.8608 7.91162 16.8633 7.89003 16.8702 7.86968C16.8771 7.84933 16.8883 7.83069 16.9029 7.815C16.9343 7.78078 16.972 7.75294 17.0139 7.733C17.1719 7.6591 17.3436 7.61891 17.5179 7.615L17.5169 7.617ZM10.1289 7.771C10.1789 7.771 10.2319 7.776 10.2859 7.783C10.4299 7.803 10.5589 7.84 10.6569 7.895C10.7049 7.92 10.7469 7.952 10.7829 7.992C10.8016 8.01331 10.8159 8.03812 10.8249 8.065C10.8339 8.09169 10.837 8.12001 10.8339 8.148C10.8246 8.20095 10.7999 8.24998 10.7629 8.289C10.7242 8.3355 10.6787 8.37595 10.6279 8.409C10.5038 8.49366 10.3531 8.53027 10.2039 8.512C10.0525 8.488 9.91322 8.41451 9.80794 8.303C9.76358 8.25865 9.72586 8.20813 9.69594 8.153C9.66479 8.10505 9.65103 8.04787 9.65694 7.991C9.67094 7.891 9.75594 7.841 9.83694 7.811C9.93077 7.78219 10.0289 7.77001 10.1269 7.775L10.1289 7.771ZM18.6889 14.503H18.6859C18.5469 14.553 18.4329 14.573 18.3359 14.613C18.2395 14.6491 18.1594 14.7191 18.1109 14.81C18.0509 14.915 18.0009 15.102 18.0159 15.42C18.0589 15.4486 18.1062 15.4702 18.1559 15.484C18.3169 15.532 18.5879 15.564 18.8909 15.559C19.4929 15.552 20.2349 15.416 20.6289 15.238C20.9519 15.092 21.2519 14.902 21.5199 14.674C20.2029 14.938 19.4599 14.868 19.0029 14.685C18.8899 14.6397 18.7841 14.578 18.6889 14.502V14.503ZM11.1009 14.589H11.0809C11.0309 14.593 10.9579 14.609 10.8179 14.761C10.4879 15.119 10.3739 15.343 10.1019 15.553C9.83194 15.763 9.47894 15.874 8.77494 16.014C8.55194 16.058 8.42494 16.107 8.33894 16.146C8.36694 16.168 8.36394 16.174 8.40494 16.195C8.50794 16.25 8.64094 16.298 8.74694 16.325C9.04994 16.398 9.54694 16.484 10.0659 16.398C10.5839 16.312 11.1239 16.071 11.5839 15.445C11.6639 15.337 11.6719 15.177 11.6069 15.005C11.5399 14.835 11.3959 14.687 11.2939 14.645C11.2329 14.6168 11.1677 14.5986 11.1009 14.591V14.589Z" fill="#212121ff"/>
</svg>
