<svg width="20" height="20" viewBox="0 0 20 20" fill="none" xmlns="http://www.w3.org/2000/svg">
<path fill-rule="evenodd" clip-rule="evenodd" d="M17.7854 16.343C17.5049 16.1121 17.2184 15.8866 16.956 15.636C16.6639 15.3571 16.4803 15.0197 16.5203 14.5925C16.5432 14.3467 16.4865 14.1353 16.1901 14.0532C16.2598 13.8728 16.3251 13.7519 16.3515 13.623C16.3809 13.4792 16.3793 13.3282 16.3834 13.1802C16.4246 11.6239 15.8624 10.2597 15.0298 8.98722C14.6464 8.40159 14.2459 7.82643 13.8371 7.25815C13.1978 6.3694 12.9685 5.37097 12.957 4.29237C12.9504 3.79447 12.8938 3.29849 12.7881 2.8119C12.5829 1.86815 12.0773 1.13018 11.1603 0.734403C10.4576 0.430965 9.73026 0.370809 8.98823 0.565028C7.90995 0.847059 7.25792 1.64847 7.27011 2.76628C7.28167 3.84206 7.33526 4.91925 7.41417 5.99253C7.45917 6.60081 7.36542 7.12565 6.96183 7.60815C6.5737 8.07206 6.22651 8.57253 5.89026 9.07643C5.69823 9.36456 5.52823 9.67846 5.40948 10.0032C5.08605 10.888 4.7887 11.7802 4.27261 12.5813C4.08136 12.8782 4.05964 13.2103 4.19542 13.5499C4.23058 13.6378 4.25214 13.7732 4.20933 13.8439C3.84151 14.4544 3.42636 14.9916 2.63651 15.1088C2.01526 15.2011 1.98464 15.3141 2.00355 15.9546C2.01917 16.476 2.01308 17.0022 1.9598 17.5203C1.90308 18.0758 1.96105 18.2267 2.49761 18.3599C3.73573 18.6674 4.98401 18.9297 6.16823 19.4308C6.67245 19.6441 7.17839 19.57 7.58448 19.1553C8.00839 18.7224 8.54401 18.553 9.12261 18.5524C10.1046 18.5516 11.087 18.5989 12.0695 18.61C12.3354 18.6132 12.4881 18.7121 12.5951 18.9536C12.7264 19.2494 12.9482 19.4667 13.2896 19.5046C13.9448 19.5767 14.5417 19.4796 15.0381 18.9797C15.6503 18.3628 16.3562 17.8757 17.1654 17.538C17.397 17.4413 17.6151 17.2892 17.8065 17.1242C18.1551 16.8239 18.1367 16.6327 17.7854 16.343ZM9.75464 3.76878C9.87308 3.36237 10.151 3.09862 10.5739 3.01862C10.9295 2.95143 11.2306 3.12612 11.455 3.52581C11.6965 3.95675 11.7759 4.40706 11.5696 4.87862C11.4004 5.26518 11.321 5.30159 10.9254 5.1705C10.8514 5.14597 10.779 5.1169 10.6478 5.06862C10.7584 4.97581 10.8281 4.9069 10.9078 4.85268C11.085 4.73206 11.1346 4.56237 11.1181 4.36081C11.0964 4.09612 10.8882 3.86175 10.6748 3.86472C10.4834 3.86737 10.3214 4.04706 10.2998 4.32018C10.2864 4.49034 10.3146 4.66378 10.3268 4.88097C9.78839 4.72112 9.59073 4.33018 9.75464 3.76878ZM7.76245 3.41706C7.96151 3.11581 8.26198 3.0555 8.55948 3.25706C8.87651 3.47206 9.1137 4.07831 8.9912 4.44081C8.94667 4.57268 8.81511 4.67518 8.72308 4.79097L8.6287 4.73253C8.59276 4.53675 8.58558 4.32862 8.51042 4.14925C8.46292 4.0355 8.31401 3.96425 8.21058 3.87393C8.11339 3.9894 7.94605 4.0994 7.93605 4.22206C7.9223 4.39143 8.01058 4.57831 8.08745 4.74253C8.13605 4.84581 8.24386 4.92143 8.35511 5.0419L8.0548 5.27784C7.58323 4.85597 7.44308 3.89972 7.76245 3.41706ZM13.6475 13.4492C13.6157 13.8561 13.5693 13.8732 13.1603 13.9333C12.8698 13.9758 12.7917 14.0514 12.777 14.3964C12.761 14.8001 12.7603 15.2042 12.7751 15.6078C12.7846 15.8844 12.6912 16.1013 12.5009 16.2942C11.444 17.3655 10.1814 17.8732 8.67089 17.6889C8.01933 17.6094 7.59339 17.2128 7.24948 16.6516C7.40261 16.5949 7.51589 16.5567 7.62636 16.5119C8.11417 16.3135 8.20542 15.8939 7.81589 15.5311C7.52151 15.2566 7.19308 15.0182 6.8773 14.7667C6.57198 14.5238 6.26261 14.2858 5.95683 14.0435C5.6962 13.8367 5.59667 13.5703 5.59042 13.2328C5.57573 12.4232 5.7423 11.6657 6.08073 10.9286C6.38261 10.271 6.61651 9.58221 6.89933 8.91534C7.04542 8.57128 7.19714 8.21925 7.41151 7.91721C7.61761 7.62753 7.74495 7.34393 7.72214 6.98909C7.70901 6.78971 7.71964 6.58878 7.71964 6.38862L7.83011 6.33362C8.00839 6.48753 8.1898 6.63815 8.36495 6.79596C8.99698 7.36565 9.59808 7.39175 10.2898 6.90065C10.5848 6.69112 10.9039 6.51472 11.2159 6.33003C11.2935 6.28409 11.3865 6.26393 11.5181 6.21471C11.8542 7.00628 12.184 7.78237 12.5142 8.55847C12.6817 8.95284 12.816 9.36581 13.0242 9.73768C13.4415 10.4838 13.6635 11.271 13.6601 12.1239C13.6582 12.5661 13.6815 13.0099 13.6475 13.4492Z" fill="#212121ff"/>
</svg>
