<svg width="18" height="18" viewBox="0 0 18 18" fill="none" xmlns="http://www.w3.org/2000/svg">
<g clip-path="url(#clip0_381_487)">
<rect width="18" height="18" transform="translate(0.000488281)" fill="transparent"/>
<path fill-rule="evenodd" clip-rule="evenodd" d="M0.00048854 8.99997C0.000546255 7.44697 0.402463 5.92041 1.16716 4.56872C1.93186 3.21703 3.03331 2.08622 4.36441 1.28624C5.69552 0.486258 7.21098 0.0443306 8.76345 0.0034279C10.3159 -0.0374748 11.8525 0.324039 13.2239 1.05282C14.5953 1.7816 15.7548 2.85284 16.5896 4.16239C17.4244 5.47193 17.9061 6.97521 17.988 8.52606C18.0698 10.0769 17.749 11.6225 17.0566 13.0127C16.3642 14.4028 15.324 15.5901 14.0369 16.4592L5.88889 5.05197C5.81506 4.94851 5.71028 4.87117 5.58967 4.8311C5.46905 4.79102 5.33882 4.79028 5.21776 4.82899C5.0967 4.8677 4.99105 4.94385 4.91606 5.04647C4.84107 5.14909 4.8006 5.27287 4.80049 5.39997V14.4H6.00049V7.27197L12.9965 17.0664C11.6242 17.7464 10.101 18.0649 8.57121 17.9919C7.0414 17.9188 5.55553 17.4566 4.25426 16.6489C2.95298 15.8412 1.87935 14.7148 1.13498 13.3763C0.390603 12.0378 0.000121127 10.5315 0.00048854 8.99997ZM12.0005 12V4.79997H13.2005V12H12.0005Z" fill="black"/>
</g>
<defs>
<clipPath id="clip0_381_487">
<rect width="18" height="18" fill="212121ff" transform="translate(0.000488281)"/>
</clipPath>
</defs>
</svg>
