<svg width="18" height="18" viewBox="0 0 18 18" fill="none" xmlns="http://www.w3.org/2000/svg">
<g clip-path="url(#clip0_381_500)">
<path d="M0.000488281 0V18H18.0005V0H0.000488281ZM8.95872 3.20006C11.5368 3.20006 13.0287 4.53783 13.3967 6.42094H11.0585C10.8006 5.67844 10.1553 5.10047 8.97855 5.10047C7.72094 5.10047 6.86285 5.81977 6.81363 6.95658H6.81152C7.24914 7.23164 7.79758 7.44989 8.46274 7.61569L10.5254 8.08566C12.3675 8.50134 13.489 9.53367 13.489 11.2157C13.5027 11.9504 13.2599 12.6669 12.8023 13.2418C12.8023 13.1833 12.7988 13.1279 12.7967 13.0712C12.7986 13.1268 12.8002 13.1826 12.8002 13.24C12.072 14.1563 10.7929 14.6703 9.28947 14.6703C6.75864 14.6703 4.98747 13.4467 4.594 11.32H7.02428C7.33718 12.2964 8.1656 12.7488 9.27147 12.7488C10.6184 12.7488 11.5143 12.0442 11.5361 10.8086C11.0861 10.5245 10.5102 10.2964 9.78743 10.1115L7.76243 9.65925C6.14074 9.29573 4.88918 8.44706 4.88918 6.62006C4.88124 5.91269 5.11212 5.22331 5.54449 4.66341C6.24705 3.75483 7.4688 3.20006 8.95872 3.20006Z" fill="#212121ff"/>
</g>
<defs>
<clipPath id="clip0_381_500">
<rect width="18" height="18" fill="212121ff" transform="translate(0.000488281)"/>
</clipPath>
</defs>
</svg>
