<svg width="28" height="28" viewBox="0 0 28 28" fill="none" xmlns="http://www.w3.org/2000/svg">
<path d="M14 4.625V1.8125M7.37094 7.37094L5.3825 5.3825M4.625 14H1.8125M14 26.1875V23.375M22.6175 22.6175L20.6291 20.63M26.1875 14H23.375M7.37094 20.6291L5.3825 22.6175M22.6175 5.3825L20.63 7.37094M19.625 14C19.625 15.4918 19.0324 16.9226 17.9775 17.9775C16.9226 19.0324 15.4918 19.625 14 19.625C12.5082 19.625 11.0774 19.0324 10.0225 17.9775C8.96763 16.9226 8.375 15.4918 8.375 14C8.375 12.5082 8.96763 11.0774 10.0225 10.0225C11.0774 8.96763 12.5082 8.375 14 8.375C15.4918 8.375 16.9226 8.96763 17.9775 10.0225C19.0324 11.0774 19.625 12.5082 19.625 14Z" stroke="#484848" stroke-width="2" stroke-linecap="round" stroke-linejoin="round"/>
</svg>
