<svg width="30" height="30" viewBox="0 0 30 30" fill="none" xmlns="http://www.w3.org/2000/svg">
<path d="M15 5.625V2.8125M8.37094 8.37094L6.3825 6.3825M5.625 15H2.8125M15 27.1875V24.375M23.6175 23.6175L21.6291 21.63M27.1875 15H24.375M8.37094 21.6291L6.3825 23.6175M23.6175 6.3825L21.63 8.37094M20.625 15C20.625 16.4918 20.0324 17.9226 18.9775 18.9775C17.9226 20.0324 16.4918 20.625 15 20.625C13.5082 20.625 12.0774 20.0324 11.0225 18.9775C9.96763 17.9226 9.375 16.4918 9.375 15C9.375 13.5082 9.96763 12.0774 11.0225 11.0225C12.0774 9.96763 13.5082 9.375 15 9.375C16.4918 9.375 17.9226 9.96763 18.9775 11.0225C20.0324 12.0774 20.625 13.5082 20.625 15Z" stroke="#F5F5F5" stroke-opacity="0.83" stroke-width="2" stroke-linecap="round" stroke-linejoin="round"/>
</svg>
