<svg width="25" height="25" viewBox="0 0 25 25" fill="none" xmlns="http://www.w3.org/2000/svg">
<path d="M11.0744 0.0865191C5.32435 0.711519 0.699352 5.33652 0.0743521 10.9615C-0.550648 16.8365 2.82435 22.0865 7.94935 24.0865C8.32435 24.2115 8.69935 23.9615 8.69935 23.4615V21.4615C8.69935 21.4615 8.19935 21.5865 7.57435 21.5865C5.82435 21.5865 5.07435 20.0865 4.94935 19.2115C4.82435 18.7115 4.57435 18.3365 4.19935 17.9615C3.82435 17.8365 3.69935 17.8365 3.69935 17.7115C3.69935 17.4615 4.07435 17.4615 4.19935 17.4615C4.94935 17.4615 5.57435 18.3365 5.82435 18.7115C6.44935 19.7115 7.19935 19.9615 7.57435 19.9615C8.07435 19.9615 8.44935 19.8365 8.69935 19.7115C8.82435 18.8365 9.19935 17.9615 9.94935 17.4615C7.07435 16.8365 4.94935 15.2115 4.94935 12.4615C4.94935 11.0865 5.57435 9.71152 6.44935 8.71152C6.32435 8.46152 6.19935 7.83652 6.19935 6.96152C6.19935 6.46152 6.19935 5.71152 6.57435 4.96152C6.57435 4.96152 8.32435 4.96152 10.0744 6.58652C10.6994 6.33652 11.5744 6.21152 12.4494 6.21152C13.3244 6.21152 14.1994 6.33652 14.9494 6.58652C16.5744 4.96152 18.4494 4.96152 18.4494 4.96152C18.6994 5.71152 18.6994 6.46152 18.6994 6.96152C18.6994 7.96152 18.5744 8.46152 18.4494 8.71152C19.3244 9.71152 19.9494 10.9615 19.9494 12.4615C19.9494 15.2115 17.8244 16.8365 14.9494 17.4615C15.6994 18.0865 16.1994 19.2115 16.1994 20.3365V23.5865C16.1994 23.9615 16.5744 24.3365 17.0744 24.2115C21.6994 22.3365 24.9494 17.8365 24.9494 12.5865C24.9494 5.08652 18.5744 -0.788481 11.0744 0.0865191Z" fill="#212121ff"/>
</svg>
