<svg width="24" height="24" viewBox="0 0 24 24" fill="none" xmlns="http://www.w3.org/2000/svg">
<path d="M11.9998 21.105C13.203 21.1051 14.3939 20.8625 15.5023 20.3916C16.6106 19.9207 17.6138 19.231 18.4526 18.3634C19.2914 17.4958 19.9487 16.4678 20.3857 15.3402C20.8227 14.2127 21.0305 13.0084 20.9968 11.7987C19.7382 12.6799 18.2266 13.121 16.6945 13.0541C15.1624 12.9873 13.6946 12.4162 12.5165 11.4286C11.3384 10.4411 10.5153 9.09174 10.1738 7.58795C9.8322 6.08416 9.99103 4.50915 10.6258 3.10498C8.38407 3.45247 6.35541 4.63859 4.94574 6.42602C3.53607 8.21345 2.84936 10.4704 3.02301 12.7452C3.19666 15.0201 4.21785 17.1451 5.88228 18.6951C7.5467 20.2451 9.73161 21.1058 11.9998 21.105Z" stroke="#212121ff" stroke-linecap="round" stroke-linejoin="round"/>
</svg>
