<svg width="20" height="20" viewBox="0 0 20 20" fill="none" xmlns="http://www.w3.org/2000/svg">
<path d="M2.58514 2.52871C2.70456 2.49875 2.82872 2.4926 2.95051 2.51062C3.07231 2.52864 3.18937 2.57048 3.29499 2.63374C3.40062 2.697 3.49276 2.78045 3.56613 2.87932C3.63951 2.97819 3.69269 3.09054 3.72264 3.20996L4.92764 8.03371C4.94944 8.12821 4.98984 8.21741 5.0465 8.29612C5.10315 8.37483 5.17492 8.44145 5.25761 8.49211C5.3403 8.54277 5.43226 8.57645 5.52811 8.59118C5.62396 8.60591 5.72178 8.60139 5.81587 8.57789C5.90995 8.55438 5.99841 8.51237 6.07608 8.45431C6.15375 8.39624 6.21907 8.32328 6.26823 8.23968C6.31739 8.15609 6.34939 8.06354 6.36239 7.96744C6.37538 7.87134 6.36909 7.77361 6.34389 7.67996L5.02889 2.41496C4.99698 2.29487 4.98926 2.16962 5.00618 2.04652C5.02311 1.92341 5.06434 1.80489 5.12747 1.69786C5.19061 1.59083 5.2744 1.49742 5.37396 1.42306C5.47352 1.3487 5.58687 1.29488 5.70742 1.26472C5.82797 1.23456 5.95332 1.22867 6.07616 1.24739C6.19901 1.26611 6.31691 1.30906 6.42301 1.37376C6.52911 1.43845 6.62129 1.52359 6.69418 1.62423C6.76708 1.72486 6.81925 1.83899 6.84764 1.95996L8.26264 7.62621C8.30922 7.81452 8.42869 7.97661 8.59478 8.07682C8.76087 8.17704 8.95996 8.20717 9.14827 8.16059C9.33657 8.11401 9.49866 7.99454 9.59887 7.82845C9.69909 7.66236 9.72922 7.46327 9.68264 7.27496L8.78514 3.63746C8.72481 3.39612 8.76281 3.14069 8.89081 2.92736C9.0188 2.71404 9.22629 2.5603 9.46764 2.49996C9.70899 2.43963 9.96442 2.47764 10.1777 2.60563C10.3911 2.73362 10.5448 2.94112 10.6051 3.18246L11.5989 7.21121C11.6234 7.30511 11.6661 7.39327 11.7246 7.47066C11.7831 7.54804 11.8563 7.61315 11.94 7.66224C12.0237 7.71134 12.1162 7.74348 12.2123 7.75681C12.3085 7.77015 12.4062 7.76442 12.5001 7.73996C12.594 7.71551 12.6822 7.67279 12.7596 7.61426C12.837 7.55573 12.9021 7.48254 12.9512 7.39885C13.0003 7.31516 13.0324 7.22262 13.0457 7.12651C13.0591 7.0304 13.0534 6.93261 13.0289 6.83871L12.5001 4.90621C12.438 4.66536 12.474 4.40969 12.6004 4.19543C12.7268 3.98117 12.933 3.82587 13.1739 3.76371C13.4147 3.70155 13.6704 3.73762 13.8847 3.86397C14.0989 3.99032 14.2542 4.19661 14.3164 4.43746L15.2489 7.87996L15.2514 7.88871C15.2639 7.92371 15.2764 7.95871 15.2839 7.99621C15.4651 8.87621 15.6026 9.78996 15.6251 10.6087C15.6664 12.1375 15.4301 14.12 15.2376 15.4475C15.1518 16.0218 14.9028 16.5594 14.5204 16.9964C14.1379 17.4333 13.638 17.7513 13.0801 17.9125L10.8501 18.5725C9.06264 19.1012 7.18639 18.4275 5.97264 17.1087C4.92264 15.965 3.55389 14.6962 2.23389 14.07C1.82578 13.8804 1.50622 13.5412 1.34139 13.1225C1.24802 12.8865 1.22801 12.6278 1.28399 12.3803C1.33997 12.1327 1.46932 11.9078 1.65514 11.735C2.05913 11.3413 2.56683 11.0708 3.11889 10.955C3.30889 10.9175 3.50639 10.8987 3.71264 10.9025L1.90389 3.66496C1.87393 3.54554 1.86778 3.42139 1.8858 3.29959C1.90382 3.17779 1.94565 3.06074 2.00891 2.95511C2.07218 2.84948 2.15562 2.75735 2.25449 2.68397C2.35336 2.6106 2.46572 2.55867 2.58514 2.52871ZM16.7876 1.25621C16.869 1.24456 16.9518 1.24905 17.0313 1.26943C17.1109 1.28981 17.1857 1.32567 17.2514 1.37496C18.2497 2.19009 18.9826 3.2841 19.3566 4.51747C19.7306 5.75083 19.7288 7.06764 19.3514 8.29996C19.3153 8.43107 19.2367 8.54645 19.1278 8.62792C19.019 8.7094 18.8861 8.75233 18.7501 8.74996L18.5751 8.72496C18.416 8.67855 18.2818 8.57083 18.2021 8.42548C18.1224 8.28014 18.1037 8.10909 18.1501 7.94996C18.4566 6.96164 18.4634 5.90469 18.1698 4.91249C17.8761 3.92029 17.2951 3.03731 16.5001 2.37496C16.4012 2.30074 16.3265 2.19884 16.2856 2.08216C16.2446 1.96548 16.2391 1.83926 16.2699 1.71948C16.3007 1.59971 16.3663 1.49175 16.4585 1.40929C16.5506 1.32682 16.6652 1.27355 16.7876 1.25621ZM15.9876 3.23746C15.9215 3.18983 15.8464 3.15588 15.767 3.13762C15.6875 3.11936 15.6052 3.11715 15.5249 3.13112C15.4445 3.14509 15.3678 3.17496 15.2991 3.21898C15.2305 3.263 15.1714 3.32028 15.1251 3.38746C15.0764 3.45218 15.0409 3.52591 15.0208 3.60439C15.0007 3.68288 14.9964 3.76457 15.008 3.84475C15.0196 3.92494 15.047 4.00202 15.0885 4.07157C15.1301 4.14112 15.185 4.20175 15.2501 4.24996C15.6135 4.56565 15.8944 4.96511 16.0686 5.41378C16.2429 5.86244 16.3052 6.34681 16.2501 6.82496C16.2433 6.90709 16.2528 6.98976 16.278 7.06821C16.3033 7.14667 16.3438 7.21935 16.3972 7.28209C16.4507 7.34483 16.516 7.39637 16.5894 7.43377C16.6629 7.47116 16.743 7.49366 16.8251 7.49996C16.9826 7.50047 17.1344 7.44153 17.2503 7.33492C17.3662 7.22832 17.4375 7.08191 17.4501 6.92496C17.5278 6.23749 17.435 5.54146 17.18 4.89835C16.9249 4.25523 16.5154 3.68481 15.9876 3.23746Z" fill="#794151ff"/>
</svg>
