<svg width="18" height="18" viewBox="0 0 18 18" fill="none" xmlns="http://www.w3.org/2000/svg">
<g clip-path="url(#clip0_381_502)">
<path d="M13.7817 0H4.21924C1.88929 0 0.000488281 1.8888 0.000488281 4.21875V13.7812C0.000488281 16.1112 1.88929 18 4.21924 18H13.7817C16.1117 18 18.0005 16.1112 18.0005 13.7812V4.21875C18.0005 1.8888 16.1117 0 13.7817 0Z" fill="#C6C6C6"/>
<mask id="mask0_381_502" maskUnits="userSpaceOnUse" x="2" y="1" width="14" height="16">
<path d="M2.25049 1.96875H15.8152V16.0312H2.25049V1.96875Z" fill="white"/>
</mask>
<g mask="url(#mask0_381_502)">
<path d="M10.1789 15.6933C9.82302 16.1414 9.10147 15.8958 9.0929 15.3236L8.96753 6.95441H14.595C15.6142 6.95441 16.1827 8.13172 15.5489 8.92998L10.1789 15.6933Z" fill="url(#paint0_linear_381_502)"/>
<path d="M10.1789 15.6933C9.82302 16.1414 9.10147 15.8958 9.0929 15.3236L8.96753 6.95441H14.595C15.6142 6.95441 16.1827 8.13172 15.5489 8.92998L10.1789 15.6933Z" fill="url(#paint1_linear_381_502)" fill-opacity="0.2"/>
<path d="M7.89015 2.22654C8.246 1.7783 8.96755 2.0239 8.97613 2.59611L9.03111 10.9653H3.47403C2.45471 10.9653 1.88624 9.78802 2.5201 8.98976L7.89015 2.22654Z" fill="#10172A"/>
</g>
</g>
<defs>
<linearGradient id="paint0_linear_381_502" x1="8.96753" y1="8.81009" x2="13.969" y2="10.9077" gradientUnits="userSpaceOnUse">
<stop offset="0.421875" stopColor="#10172A"/>
<stop offset="1" stopColor="#435074"/>
</linearGradient>
<linearGradient id="paint1_linear_381_502" x1="6.75015" y1="5.77407" x2="9.03109" y2="10.0678" gradientUnits="userSpaceOnUse">
<stop/>
<stop offset="1" stop-opacity="0"/>
</linearGradient>
<clipPath id="clip0_381_502">
<rect width="18" height="18" fill="white" transform="translate(0.000488281)"/>
</clipPath>
</defs>
</svg>
