<svg width="26" height="16" viewBox="0 0 26 16" fill="none" xmlns="http://www.w3.org/2000/svg">
<path d="M13.0005 0C9.52949 0 7.37149 1.729 6.50049 5.2C7.80049 3.471 9.32149 2.821 11.0505 3.25C12.0385 3.497 12.7535 4.212 13.5335 5.005C14.8075 6.305 16.2505 7.8 19.5005 7.8C22.9715 7.8 25.1295 6.071 26.0005 2.6C24.7005 4.329 23.1795 4.979 21.4505 4.55C20.4625 4.303 19.7605 3.588 18.9675 2.795C17.6935 1.495 16.2505 0 13.0005 0ZM6.50049 7.8C3.02949 7.8 0.871488 9.529 0.000488281 13C1.30049 11.271 2.82149 10.621 4.55049 11.05C5.53849 11.297 6.24049 12.012 7.03349 12.805C8.30749 14.105 9.75049 15.6 13.0005 15.6C16.4715 15.6 18.6295 13.871 19.5005 10.4C18.2005 12.129 16.6795 12.779 14.9505 12.35C13.9625 12.103 13.2605 11.388 12.4675 10.595C11.1935 9.295 9.75049 7.8 6.50049 7.8Z" fill="#C6C6C6"/>
</svg>
